<?xml version="1.0" standalone="no"?>
<!DOCTYPE svg PUBLIC "-//W3C//DTD SVG 20010904//EN"
 "http://www.w3.org/TR/2001/REC-SVG-20010904/DTD/svg10.dtd">
<svg version="1.0" xmlns="http://www.w3.org/2000/svg"
 width="512.000000pt" height="512.000000pt" viewBox="0 0 512.000000 512.000000"
 preserveAspectRatio="xMidYMid meet">
<metadata>
Created by potrace 1.14, written by Peter Selinger 2001-2017
</metadata>
<g transform="translate(0.000000,512.000000) scale(0.100000,-0.100000)"
fill="#000000" stroke="none">
<path d="M2528 3953 c7 -3 16 -2 19 1 4 3 -2 6 -13 5 -11 0 -14 -3 -6 -6z"/>
<path d="M4333 3367 c26 -28 28 -27 20 1 -3 13 -13 22 -24 22 -17 0 -16 -2 4
-23z"/>
<path d="M4475 3350 c4 -6 11 -8 16 -5 14 9 11 15 -7 15 -8 0 -12 -5 -9 -10z"/>
<path d="M4401 3338 c-1 -11 -6 -15 -16 -12 -8 4 -15 1 -15 -4 0 -6 9 -14 20
-17 20 -6 28 -35 10 -35 -5 0 -10 5 -10 11 0 5 -5 7 -12 3 -6 -4 -8 -3 -5 3 8
13 -20 26 -35 17 -6 -4 -5 -10 3 -15 8 -5 9 -9 3 -9 -6 0 -11 -7 -11 -15 0 -9
6 -14 13 -11 7 3 15 -1 18 -9 2 -7 -2 -16 -10 -19 -8 -3 -14 -12 -14 -21 0
-21 -13 -19 -28 5 -13 21 -37 17 -29 -4 3 -7 1 -19 -5 -27 -8 -11 -9 -10 -4 4
3 9 1 17 -4 17 -6 0 -10 -5 -10 -11 0 -5 -4 -7 -10 -4 -5 3 -10 0 -10 -7 0 -9
-3 -9 -10 2 -8 13 -10 12 -10 -2 0 -21 -4 -22 -32 -7 -15 8 -19 8 -14 0 12
-19 -13 -12 -31 9 -21 24 -33 26 -33 5 0 -8 -7 -15 -15 -15 -8 0 -15 5 -15 10
0 6 -4 10 -9 10 -5 0 -7 -9 -4 -20 3 -11 12 -20 19 -20 8 0 14 -4 14 -10 0 -5
-6 -7 -14 -4 -9 3 -17 -3 -21 -15 -3 -12 -11 -21 -16 -21 -13 0 -11 17 4 24 6
4 2 4 -11 2 -19 -4 -24 1 -29 25 -3 16 -9 26 -14 24 -4 -3 -6 -12 -2 -20 3 -8
0 -15 -6 -15 -9 0 -9 -5 -1 -20 8 -16 8 -20 -4 -20 -10 0 -13 6 -10 18 5 14 3
14 -10 -2 -10 -13 -16 -15 -16 -7 0 8 8 20 17 27 10 7 14 16 10 20 -4 5 -11 4
-15 -2 -13 -18 -54 -13 -73 9 -12 14 -18 17 -19 8 0 -7 -6 -11 -14 -8 -7 3
-19 0 -25 -6 -13 -13 -15 -31 -2 -23 5 3 11 -1 14 -9 4 -10 1 -12 -11 -8 -22
9 -42 29 -42 42 0 6 -5 11 -11 11 -6 0 -9 -6 -6 -14 7 -18 -20 -25 -51 -14
-15 5 -33 3 -53 -7 -30 -16 -39 -35 -16 -35 8 0 8 -3 -2 -9 -16 -10 -53 8 -45
21 3 4 0 8 -5 8 -6 0 -11 -9 -11 -19 0 -25 -18 -37 -33 -22 -6 6 -18 11 -27
11 -12 0 -12 -2 -1 -9 10 -6 10 -10 1 -16 -15 -9 -40 24 -32 44 4 10 1 12 -7
7 -7 -5 -11 -17 -8 -27 6 -23 3 -24 -19 -2 -13 13 -16 14 -12 3 6 -20 -32 -39
-55 -28 -10 5 -15 13 -12 18 3 5 1 11 -4 14 -11 7 -22 -17 -13 -30 4 -5 18
-15 32 -22 20 -10 21 -11 3 -7 -14 4 -25 0 -33 -12 -10 -16 -11 -16 -6 -1 3
10 1 20 -4 23 -6 4 -10 14 -10 25 0 10 -6 20 -13 23 -10 4 -12 -3 -9 -23 2
-15 -1 -31 -7 -35 -8 -5 -10 1 -6 18 7 25 -15 52 -23 29 -2 -7 -8 -12 -14 -12
-6 0 -17 -8 -25 -17 -8 -10 -12 -12 -8 -5 7 13 -22 48 -31 39 -3 -3 -1 -14 5
-26 7 -13 8 -22 1 -26 -5 -3 -10 3 -10 14 0 27 -14 27 -34 -1 -10 -16 -14 -17
-10 -5 6 15 3 16 -22 7 -15 -6 -33 -18 -41 -28 -12 -16 -14 -16 -27 1 -18 23
-29 22 -16 -2 15 -28 12 -35 -6 -20 -20 16 -44 21 -44 8 0 -6 -4 -7 -10 -4 -5
3 -7 0 -4 -8 3 -8 -3 -20 -13 -28 -16 -12 -17 -12 -6 2 15 19 7 30 -15 21 -15
-5 -15 -4 -3 12 12 14 12 19 1 29 -8 8 -11 8 -7 1 4 -7 1 -17 -7 -23 -11 -10
-16 -6 -24 16 -6 15 -11 22 -11 16 -1 -7 -9 -13 -18 -13 -13 0 -14 -3 -5 -12
20 -20 13 -32 -8 -13 -19 18 -26 11 -21 -19 1 -5 -5 -6 -13 -3 -10 4 -13 1 -9
-9 3 -10 12 -12 26 -8 20 6 20 6 4 -10 -9 -10 -22 -14 -28 -10 -9 5 -10 -1 -6
-23 3 -16 7 -33 8 -39 1 -5 0 -25 -1 -44 -2 -24 -5 -13 -11 34 -10 93 -17 118
-30 110 -7 -4 -8 -9 -1 -13 5 -3 6 -15 1 -26 -4 -11 -8 -16 -8 -12 -1 4 -7 2
-15 -5 -7 -7 -12 -18 -9 -24 2 -7 0 -15 -6 -19 -7 -3 -8 0 -5 9 3 9 1 16 -5
16 -6 0 -11 -7 -11 -15 0 -17 -35 -20 -45 -4 -5 7 -14 4 -28 -8 -19 -16 -20
-16 -14 -1 3 10 2 20 -3 23 -6 4 -10 0 -10 -7 -1 -7 -7 -2 -15 12 -8 14 -14
20 -15 13 0 -8 -12 -10 -37 -6 -36 6 -37 5 -23 -12 14 -17 13 -18 -2 -12 -10
3 -18 2 -18 -2 0 -5 5 -11 12 -13 7 -3 5 -7 -6 -11 -9 -4 -15 -3 -11 2 5 10
-57 53 -72 50 -8 -2 -56 15 -74 27 -5 3 -6 -2 -3 -10 3 -9 18 -17 33 -17 23
-2 24 -2 4 -6 -13 -2 -23 -9 -23 -14 0 -6 -4 -8 -9 -4 -5 3 -12 1 -15 -3 -3
-5 -20 -8 -39 -7 -31 2 -33 1 -34 -31 -1 -39 11 -51 33 -33 13 10 17 10 24 0
4 -8 13 -10 19 -6 9 5 7 11 -6 22 -17 13 -16 14 11 8 25 -5 28 -4 23 14 -3 12
-1 24 4 27 5 3 9 -3 9 -13 0 -14 2 -15 9 -5 6 10 10 9 14 -7 3 -12 12 -21 21
-21 9 0 16 -4 16 -8 0 -9 -16 -12 -58 -13 -23 -1 -23 -2 -5 -18 17 -17 19 -17
31 0 7 10 19 16 27 13 8 -4 15 -1 15 5 0 6 5 11 12 11 6 0 2 -10 -10 -22 -17
-19 -19 -27 -10 -43 10 -17 10 -18 -4 -7 -13 10 -15 9 -13 -13 2 -14 -1 -23
-6 -19 -13 8 -11 -20 3 -34 6 -6 8 -15 4 -19 -4 -4 -12 0 -18 10 -7 13 -17 17
-33 13 -19 -5 -22 -3 -18 14 6 23 14 25 31 8 7 -7 12 -9 12 -5 0 11 -44 52
-53 49 -5 -1 -6 2 -2 7 3 6 12 8 20 4 22 -8 18 15 -4 27 -14 7 -21 6 -24 -3
-3 -9 -7 -9 -17 0 -9 9 -23 5 -58 -14 l-46 -26 -16 21 c-12 14 -21 17 -31 11
-9 -6 -10 -9 -2 -9 7 0 10 -7 6 -17 -4 -9 -2 -14 3 -10 5 3 10 -3 10 -14 0
-10 -4 -19 -8 -19 -4 0 -14 -17 -23 -37 -9 -21 -23 -53 -31 -70 -7 -18 -10
-33 -5 -33 13 0 32 26 24 34 -4 4 0 4 10 0 22 -8 22 -16 -3 -32 -11 -7 -20
-20 -20 -28 0 -9 -8 -23 -17 -31 -10 -8 -13 -12 -6 -9 6 4 14 2 18 -4 3 -5 1
-10 -4 -10 -21 0 -10 -31 14 -40 14 -5 25 -15 24 -22 0 -10 -2 -10 -6 0 -2 6
-9 12 -14 12 -17 0 -9 -27 13 -46 12 -10 19 -14 15 -8 -4 6 -1 23 6 38 13 28
30 37 20 10 -5 -14 -3 -15 17 -4 15 8 20 8 16 1 -4 -6 -3 -11 2 -11 17 0 22
13 9 28 -10 13 -8 14 11 8 14 -5 22 -3 22 4 0 6 -4 8 -10 5 -6 -4 -10 7 -10
24 0 33 14 42 24 15 3 -8 10 -12 16 -9 6 4 9 -2 7 -12 -7 -34 -19 -53 -30 -46
-6 3 -7 1 -3 -6 4 -6 12 -9 17 -5 5 3 16 1 22 -5 18 -14 57 -2 57 18 0 9 5 23
10 31 7 11 8 6 6 -17 -3 -18 -7 -37 -10 -42 -4 -5 1 -14 10 -19 12 -6 15 -18
12 -36 -5 -24 -4 -25 11 -12 11 10 21 12 34 5 13 -8 17 -6 17 8 0 15 2 16 10
3 8 -12 11 -13 19 -1 7 10 10 10 16 1 5 -8 1 -16 -9 -22 -9 -5 -16 -14 -16
-21 0 -7 4 -6 10 3 7 11 10 11 10 2 0 -10 5 -10 21 -2 31 17 59 20 59 7 0 -7
7 -4 14 6 11 14 15 15 19 5 4 -11 6 -11 6 0 1 11 4 11 16 0 46 -41 75 -48 68
-14 -4 17 -3 18 6 6 10 -13 14 -11 32 10 11 14 19 18 16 10 -2 -8 -7 -25 -11
-37 -5 -17 -3 -23 8 -23 8 0 18 5 21 10 3 6 17 8 30 6 14 -3 28 0 31 6 4 7 9
7 13 0 10 -17 45 -18 47 -2 3 34 4 40 14 40 5 0 7 -8 4 -17 -5 -16 -4 -17 8
-2 11 14 15 14 26 2 11 -11 11 -17 2 -28 -10 -12 -10 -15 0 -15 10 0 10 -3 0
-15 -7 -8 -25 -15 -41 -15 -15 0 -31 -4 -34 -10 -6 -10 -128 -7 -157 5 -11 4
-23 -1 -35 -14 -21 -26 -41 -27 -59 -3 -13 16 -15 16 -29 -2 -16 -21 -86 -32
-170 -26 -16 1 -93 -1 -170 -5 -170 -9 -175 -9 -250 4 -33 6 -107 13 -165 16
-99 5 -131 7 -275 21 -33 4 -81 7 -106 8 -25 2 -51 6 -57 10 -7 4 -19 3 -28
-2 -11 -6 -26 -5 -43 4 -14 8 -38 14 -53 14 -15 0 -29 4 -32 8 -4 7 -98 33
-123 34 -5 0 -16 4 -25 9 -11 6 -19 5 -23 -2 -4 -6 -20 -7 -38 -3 l-32 6 19
-21 c11 -11 28 -21 39 -21 11 0 29 -8 40 -17 19 -17 20 -17 9 3 -10 18 -8 23
8 27 22 6 120 -25 100 -31 -8 -3 -20 -11 -27 -18 -7 -7 -22 -10 -33 -7 -11 3
-27 0 -35 -7 -12 -10 -15 -10 -15 0 0 8 -16 10 -55 7 -42 -4 -55 -2 -55 8 0 8
-5 17 -10 20 -7 4 -8 -3 -4 -22 7 -27 6 -28 -13 -10 -11 9 -29 17 -41 17 -12
0 -22 5 -22 10 0 6 -7 10 -15 10 -8 0 -16 3 -16 8 -9 55 -8 57 29 69 31 10 46
8 95 -9 32 -11 61 -17 64 -14 3 3 0 7 -8 10 -8 2 -49 16 -91 31 -42 15 -83 23
-89 19 -8 -5 -9 -3 -4 6 6 10 3 12 -13 8 -12 -4 -20 -2 -16 3 5 8 -12 13 -43
12 -7 -1 -13 3 -13 7 0 4 -15 13 -32 19 -32 10 -32 10 -11 -6 13 -8 23 -24 23
-35 0 -11 8 -22 17 -25 24 -6 56 -77 48 -103 -4 -11 -2 -20 4 -20 6 0 11 -6
11 -14 0 -8 4 -18 10 -21 6 -3 7 1 4 9 -11 29 15 17 31 -14 27 -51 115 -80
248 -80 40 0 110 -4 157 -9 47 -5 154 -12 238 -16 l154 -7 -16 30 c-15 29 -15
31 5 37 13 4 25 2 29 -5 5 -7 10 -8 13 -2 4 6 25 6 58 -1 44 -9 54 -15 63 -39
6 -15 14 -28 19 -28 4 0 6 -4 2 -9 -3 -5 -30 -9 -59 -8 -30 2 -52 -1 -50 -5 5
-7 21 -10 190 -28 56 -6 114 -13 130 -16 16 -3 48 -7 70 -7 29 -2 55 -12 87
-34 24 -18 63 -36 85 -42 37 -8 44 -6 66 16 14 14 29 22 34 19 5 -3 33 1 63 9
67 18 115 19 126 3 4 -7 10 -38 13 -68 5 -51 7 -55 30 -54 14 1 35 5 48 9 23
8 23 8 -16 49 -22 22 -43 51 -47 64 -3 12 -14 22 -23 22 -11 0 -5 8 16 20 44
27 103 19 192 -26 74 -37 81 -49 59 -97 -22 -49 30 -87 117 -87 29 0 124 53
124 70 0 4 28 21 63 38 l62 31 181 -6 c118 -4 204 -2 250 6 69 12 190 47 209
61 6 4 22 10 37 14 15 3 42 20 60 37 18 16 50 40 71 51 26 15 37 29 37 45 0
13 4 23 9 23 6 0 25 14 43 31 18 18 26 29 17 26 -11 -3 -21 8 -35 39 -14 32
-25 44 -41 44 -12 0 -25 -5 -28 -10 -4 -6 -26 -20 -51 -31 -24 -12 -44 -25
-44 -30 0 -5 -5 -9 -11 -9 -5 0 -8 4 -5 9 4 5 -11 12 -33 16 -21 3 -48 14 -59
23 -20 16 -20 18 41 77 67 65 103 113 92 123 -4 4 -12 0 -18 -8 -7 -8 -23 -16
-36 -18 -29 -3 -41 -13 -23 -19 6 -3 10 -9 7 -13 -3 -5 -16 1 -28 13 -19 19
-22 20 -25 4 -2 -9 -11 -17 -21 -17 -10 0 -21 -3 -25 -7 -13 -13 -47 -10 -42
4 3 7 1 13 -4 13 -6 0 -11 -4 -11 -10 -1 -5 -3 -14 -4 -20 -1 -5 -3 -13 -4
-17 0 -4 -8 2 -16 13 -8 10 -15 14 -15 8 0 -7 -8 -11 -17 -10 -10 0 -17 -4
-16 -11 2 -7 -3 -10 -10 -8 -6 3 -18 -4 -24 -15 -12 -19 -11 -19 31 -14 51 7
59 -1 59 -57 0 -68 -39 -94 -158 -104 -57 -4 -76 -3 -65 4 13 9 12 11 -4 11
-18 0 -18 1 -2 19 12 13 13 19 4 17 -7 0 -14 3 -15 8 -1 5 -7 13 -15 18 -10 7
-9 11 6 23 11 8 28 15 38 15 10 0 36 7 58 16 34 14 38 19 29 35 -7 13 -6 19 1
19 6 0 8 5 5 11 -5 6 -12 4 -22 -8 -13 -16 -14 -16 -9 -1 3 9 0 19 -7 22 -7 2
-4 5 5 5 11 1 19 13 24 36 6 35 28 44 46 20 5 -6 8 -5 8 3 0 9 7 11 22 6 19
-6 21 -5 11 8 -10 11 -7 18 13 32 23 18 23 20 8 38 -10 11 -12 18 -6 18 7 0
12 -4 12 -10 0 -5 8 -10 18 -9 10 0 12 3 5 6 -7 2 -13 9 -13 15 0 6 6 6 15 -2
8 -6 23 -9 35 -5 27 9 26 -3 -2 -15 l-23 -9 23 0 c12 -1 22 4 22 9 0 6 5 10
11 10 5 0 7 -4 4 -10 -3 -5 -1 -10 4 -10 6 0 11 7 11 15 0 8 -7 15 -15 15 -8
0 -15 4 -15 9 0 13 73 22 81 10 4 -8 9 -7 14 1 4 7 1 16 -6 21 -9 5 0 7 24 6
36 -3 48 5 27 18 -10 6 24 45 40 45 10 0 30 -23 30 -34 0 -6 -7 -2 -15 8 -12
16 -17 17 -30 6 -8 -7 -12 -17 -9 -22 4 -6 10 -5 14 3 7 10 12 10 23 0 17 -13
33 1 22 19 -3 6 -2 10 4 10 5 0 12 -6 14 -12 4 -8 6 -7 6 4 1 9 -5 19 -11 21
-10 4 -10 6 -1 6 7 1 10 8 7 16 -4 8 -1 15 5 15 6 0 11 -4 11 -10 0 -19 16
-10 33 20 14 22 15 30 5 30 -23 1 36 40 60 40 12 0 22 5 22 10 0 6 -8 10 -17
10 -12 0 -14 3 -7 10 14 14 44 2 44 -18 0 -12 3 -13 11 -5 7 7 8 17 1 30 -9
17 -7 18 23 15 34 -4 47 6 52 43 2 11 8 21 13 23 19 7 61 44 55 50 -3 3 -12
-3 -20 -14 -15 -19 -15 -19 -8 1 3 11 11 23 16 26 5 4 6 12 2 19 -6 9 -9 9
-16 -1 -6 -10 -9 -10 -9 -2 0 26 20 22 44 -9 18 -23 22 -35 13 -40 -8 -5 -4
-8 11 -8 13 0 22 -6 22 -15 0 -9 6 -12 16 -8 15 6 15 7 -1 19 -16 12 -17 17
-6 38 10 17 10 29 2 43 -5 11 -7 24 -3 28 4 5 2 5 -5 1 -7 -4 -10 -13 -6 -21
3 -8 0 -15 -7 -15 -8 0 -10 8 -7 22 4 15 -1 30 -16 47 -12 13 -16 21 -9 17 7
-4 12 -2 12 6 0 8 5 6 11 -5 6 -9 14 -15 19 -12 5 3 16 -5 24 -17 9 -12 16
-18 16 -12 0 5 -7 20 -16 32 -14 21 -14 23 8 31 27 10 39 4 18 -9 -8 -6 -10
-10 -4 -10 20 0 34 22 21 34 -32 32 -103 38 -123 11 -10 -14 -12 -14 -18 0 -8
21 3 45 18 39 7 -3 21 4 31 16 10 11 23 20 28 20 6 0 2 -6 -9 -14 -15 -12 -16
-17 -7 -27 10 -10 15 -9 28 1 8 7 15 8 15 2 0 -5 7 -13 16 -16 8 -3 12 -2 9 4
-3 6 3 10 14 10 12 0 21 5 21 10 0 6 -4 10 -8 10 -5 0 -14 11 -20 25 -6 14
-16 25 -22 25 -16 0 -40 26 -32 34 3 4 -1 4 -10 1 -12 -5 -18 0 -21 17 -3 14
-5 16 -6 6z m-6 -78 c3 -5 -1 -10 -10 -10 -9 0 -13 5 -10 10 3 6 8 10 10 10 2
0 7 -4 10 -10z m95 -24 c0 -3 -4 -8 -10 -11 -5 -3 -10 -1 -10 4 0 6 5 11 10
11 6 0 10 -2 10 -4z m-48 -79 c-6 -24 -22 -32 -22 -11 0 11 -6 15 -19 11 -13
-3 -18 0 -15 8 3 6 18 12 33 11 21 -1 27 -5 23 -19z m-496 -69 c3 -5 -8 -2
-25 7 -17 9 -37 13 -44 9 -7 -4 -9 -4 -5 1 5 5 -1 14 -12 22 -11 8 -20 18 -20
23 0 11 96 -46 106 -62z m234 46 c0 -2 -9 0 -20 6 -11 6 -20 13 -20 16 0 2 9
0 20 -6 11 -6 20 -13 20 -16z m83 6 c-3 -11 -9 -17 -14 -14 -5 3 -7 9 -4 14 3
4 -1 11 -7 13 -7 3 -3 6 9 6 16 1 20 -3 16 -19z m37 10 c0 -5 -5 -10 -11 -10
-5 0 -7 5 -4 10 3 6 8 10 11 10 2 0 4 -4 4 -10z m-165 -10 c3 -6 -1 -7 -9 -4
-18 7 -21 14 -7 14 6 0 13 -4 16 -10z m-441 -15 c-7 -16 -24 -21 -24 -6 0 8 7
13 27 20 1 1 0 -6 -3 -14z m56 -11 c0 -2 -7 -4 -15 -4 -8 0 -15 4 -15 10 0 5
7 7 15 4 8 -4 15 -8 15 -10z m470 -20 c0 -8 -5 -12 -10 -9 -6 4 -8 11 -5 16 9
14 15 11 15 -7z m141 -11 c-12 -20 -14 -14 -5 12 4 9 9 14 11 11 3 -2 0 -13
-6 -23z m-621 -19 c0 -2 -7 -4 -15 -4 -8 0 -15 4 -15 10 0 5 7 7 15 4 8 -4 15
-8 15 -10z m-430 -3 c0 -5 -9 -11 -20 -14 -22 -6 -28 8 -7 16 19 8 27 8 27 -2z
m175 -19 c-1 -1 -12 -4 -24 -7 -23 -4 -31 20 -9 27 11 4 40 -13 33 -20z m805
4 c0 -3 -4 -8 -10 -11 -5 -3 -10 -1 -10 4 0 6 5 11 10 11 6 0 10 -2 10 -4z
m-1140 -9 c0 -2 -10 -12 -21 -23 -22 -19 -22 -19 -10 4 10 18 31 31 31 19z
m1287 -19 c-3 -8 -6 -5 -6 6 -1 11 2 17 5 13 3 -3 4 -12 1 -19z m-22 2 c3 -5
1 -10 -4 -10 -6 0 -11 5 -11 10 0 6 2 10 4 10 3 0 8 -4 11 -10z m-1181 -9 c3
-5 -1 -11 -9 -15 -9 -3 -15 0 -15 9 0 16 16 20 24 6z m646 -1 c0 -5 -4 -10
-10 -10 -5 0 -10 5 -10 10 0 6 5 10 10 10 6 0 10 -4 10 -10z m437 -12 c-3 -8
-6 -5 -6 6 -1 11 2 17 5 13 3 -3 4 -12 1 -19z m-1292 -18 c-3 -4 0 -11 5 -13
6 -3 5 -4 -2 -3 -7 1 -15 11 -16 21 -3 11 0 15 7 10 6 -3 9 -10 6 -15z m145 0
c0 -5 -2 -10 -4 -10 -3 0 -8 5 -11 10 -3 6 -1 10 4 10 6 0 11 -4 11 -10z
m-135 -48 c-3 -3 -11 0 -18 7 -9 10 -8 11 6 5 10 -3 15 -9 12 -12z m-135 -2
c0 -5 -5 -10 -11 -10 -5 0 -7 5 -4 10 3 6 8 10 11 10 2 0 4 -4 4 -10z m1384
-18 c2 -4 -4 -9 -15 -9 -11 -1 -17 2 -14 8 7 11 22 12 29 1z m-1834 -22 c0 -5
-7 -7 -15 -4 -8 4 -12 10 -9 15 6 11 24 2 24 -11z m25 10 c3 -5 1 -10 -4 -10
-6 0 -11 5 -11 10 0 6 2 10 4 10 3 0 8 -4 11 -10z m142 -6 c0 -7 -6 -10 -14
-7 -9 4 -11 0 -6 -13 6 -16 5 -17 -9 -4 -8 8 -14 20 -11 25 5 15 40 13 40 -1z
m193 5 c0 -5 -4 -7 -10 -4 -5 3 -10 1 -10 -6 0 -7 -3 -10 -6 -6 -8 7 4 27 17
27 5 0 9 -5 9 -11z m95 1 c-3 -5 -12 -10 -18 -10 -7 0 -6 4 3 10 19 12 23 12
15 0z m-571 -36 c3 -8 2 -12 -4 -9 -6 3 -10 10 -10 16 0 14 7 11 14 -7z m54
-2 c2 -7 -2 -10 -12 -6 -9 3 -16 11 -16 16 0 13 23 5 28 -10z m432 -17 c0 -5
-5 -3 -10 5 -5 8 -10 20 -10 25 0 6 5 3 10 -5 5 -8 10 -19 10 -25z m-500 -5
c0 -5 -5 -10 -11 -10 -5 0 -7 5 -4 10 3 6 8 10 11 10 2 0 4 -4 4 -10z m1815
-10 c-3 -5 -12 -10 -18 -10 -7 0 -6 4 3 10 19 12 23 12 15 0z m-58 -34 c-4
-10 2 -16 16 -18 17 -3 19 -5 6 -10 -22 -9 -43 7 -36 26 4 9 9 16 13 16 3 0 4
-6 1 -14z m-1232 -5 c3 -5 1 -12 -5 -16 -5 -3 -10 1 -10 9 0 18 6 21 15 7z
m-484 -30 c5 -12 5 -20 0 -17 -11 7 -9 -140 2 -150 4 -4 2 -13 -4 -21 -6 -7
-8 -13 -4 -13 4 0 2 -7 -5 -15 -15 -18 -5 -36 18 -29 14 5 15 4 2 -5 -13 -9
-13 -11 3 -11 9 0 17 -4 17 -10 0 -14 -16 -12 -32 3 -7 8 -23 19 -35 25 -12 7
-21 20 -21 30 1 9 -1 29 -5 44 -5 20 -4 26 5 23 9 -4 13 5 14 25 1 16 -3 30
-7 30 -5 0 -9 13 -9 29 0 16 -6 31 -12 33 -7 3 -2 7 10 10 12 4 20 2 16 -3 -3
-5 0 -9 5 -9 17 0 13 20 -5 27 -15 6 -15 8 2 20 23 17 35 13 45 -16z m-71 -55
c0 -3 -4 -8 -10 -11 -5 -3 -10 -1 -10 4 0 6 5 11 10 11 6 0 10 -2 10 -4z m110
-30 c0 -3 -4 -8 -10 -11 -5 -3 -10 -1 -10 4 0 6 5 11 10 11 6 0 10 -2 10 -4z
m-20 -41 c0 -8 -4 -15 -10 -15 -5 0 -7 7 -4 15 4 8 8 15 10 15 2 0 4 -7 4 -15z
m-150 -9 c0 -3 -4 -8 -10 -11 -5 -3 -10 -1 -10 4 0 6 5 11 10 11 6 0 10 -2 10
-4z m179 -39 c8 -10 7 -17 -1 -25 -9 -9 -9 -12 0 -12 7 0 12 -8 12 -17 0 -15
-4 -14 -19 6 -14 18 -20 21 -24 10 -4 -10 -6 -8 -6 5 -1 12 4 16 14 12 9 -3
15 0 15 8 0 8 -6 17 -12 19 -8 4 -9 6 -2 6 6 1 16 -5 23 -12z m438 -19 c-3 -7
-5 -2 -5 12 0 14 2 19 5 13 2 -7 2 -19 0 -25z m823 -38 c0 -5 -2 -10 -4 -10
-3 0 -8 5 -11 10 -3 6 -1 10 4 10 6 0 11 -4 11 -10z m-1457 -45 c-3 -9 -8 -14
-10 -11 -3 3 -2 9 2 15 9 16 15 13 8 -4z m157 -40 c-7 -9 -15 -13 -19 -10 -3
3 1 10 9 15 21 14 24 12 10 -5z m67 -4 c0 -11 -5 -18 -9 -15 -4 3 -5 11 -1 19
7 21 12 19 10 -4z m1066 -5 c20 -15 23 -40 5 -33 -7 2 -13 9 -13 15 0 5 -3 14
-7 18 -5 4 -8 -2 -8 -13 0 -12 6 -23 13 -26 6 -2 9 -8 4 -12 -11 -13 -30 11
-32 40 -1 28 11 31 38 11z m-329 -22 c3 -8 2 -12 -4 -9 -6 3 -10 10 -10 16 0
14 7 11 14 -7z m116 -4 c0 -16 -23 -60 -31 -60 -4 0 -10 -9 -14 -19 -3 -11
-20 -25 -38 -30 -38 -13 -48 -14 -44 -3 1 4 5 6 10 5 9 -4 9 9 -2 26 -7 10
-12 8 -25 -10 -17 -25 -17 -25 -21 8 -1 14 2 20 10 16 7 -2 16 1 20 7 5 8 11
6 19 -6 12 -16 14 -15 19 8 6 24 47 47 47 27 0 -5 -7 -9 -15 -9 -8 0 -15 -4
-15 -10 0 -5 6 -10 13 -10 19 0 36 20 30 36 -4 10 0 12 11 8 12 -5 15 -2 10
10 -3 9 -1 16 5 16 6 0 11 -4 11 -10z m50 -30 c4 0 11 8 15 18 6 15 8 14 16
-5 10 -27 29 -30 29 -5 0 14 2 15 10 2 6 -10 10 -11 10 -2 0 6 5 12 11 12 7 0
6 -8 -4 -22 -9 -15 -22 -22 -37 -20 -16 3 -20 0 -15 -9 5 -8 4 -10 -4 -5 -6 4
-9 11 -6 15 2 5 -7 6 -20 3 -15 -2 -25 0 -25 7 0 6 -7 11 -15 11 -9 0 -12 6
-9 15 5 13 8 13 21 0 8 -8 18 -15 23 -15z m-2462 -45 c-3 -3 -9 2 -12 12 -6
14 -5 15 5 6 7 -7 10 -15 7 -18z m2132 15 c0 -5 10 -10 23 -10 20 -1 21 -1 4
-11 -18 -10 -18 -11 0 -31 17 -20 17 -20 -1 -17 -11 2 -21 14 -23 29 -2 14 -8
27 -13 28 -13 5 -13 22 0 22 6 0 10 -4 10 -10z m338 -5 c1 -1 -6 -5 -17 -8
-11 -3 -26 2 -32 10 -11 12 -8 13 17 7 16 -4 30 -8 32 -9z m-268 -25 c0 -11
-7 -20 -15 -20 -18 0 -19 6 -2 25 16 19 17 18 17 -5z m200 10 c0 -5 -5 -10
-11 -10 -5 0 -7 5 -4 10 3 6 8 10 11 10 2 0 4 -4 4 -10z m-960 -190 c0 -5 -5
-10 -11 -10 -5 0 -7 5 -4 10 3 6 8 10 11 10 2 0 4 -4 4 -10z m-190 -70 c0 -5
-4 -12 -10 -15 -5 -3 -10 -1 -10 6 0 9 -3 9 -14 0 -10 -9 -15 -8 -19 1 -3 9 6
14 24 15 16 1 29 -2 29 -7z"/>
<path d="M2330 2770 c0 -5 5 -10 11 -10 5 0 7 5 4 10 -3 6 -8 10 -11 10 -2 0
-4 -4 -4 -10z"/>
<path d="M2320 2691 c0 -10 19 -25 25 -20 1 2 -3 10 -11 17 -8 7 -14 8 -14 3z"/>
<path d="M2325 2580 c-7 -11 2 -30 13 -30 4 0 8 9 8 20 0 21 -11 26 -21 10z"/>
<path d="M4455 3330 c10 -11 20 -20 23 -20 3 0 -3 9 -13 20 -10 11 -20 20 -23
20 -3 0 3 -9 13 -20z"/>
<path d="M4058 3269 c4 -4 22 -9 40 -12 25 -5 30 -4 21 6 -6 6 -24 12 -40 12
-15 0 -25 -3 -21 -6z"/>
<path d="M4182 3240 c17 -26 34 -32 48 -15 12 15 7 19 -33 29 -26 6 -27 5 -15
-14z m48 -4 c0 -3 -4 -8 -10 -11 -5 -3 -10 -1 -10 4 0 6 5 11 10 11 6 0 10 -2
10 -4z"/>
<path d="M2975 3220 c-3 -5 1 -10 9 -10 9 0 16 5 16 10 0 6 -4 10 -9 10 -6 0
-13 -4 -16 -10z"/>
<path d="M4135 3220 c-3 -5 0 -10 9 -10 8 0 17 -6 19 -12 4 -8 6 -9 6 -2 1 18
-26 37 -34 24z"/>
<path d="M4240 3215 c-11 -13 -10 -14 4 -9 9 3 16 10 16 15 0 13 -6 11 -20 -6z"/>
<path d="M3930 3200 c0 -5 5 -10 11 -10 5 0 7 5 4 10 -3 6 -8 10 -11 10 -2 0
-4 -4 -4 -10z"/>
<path d="M4515 3190 c-3 -5 -1 -10 6 -10 7 0 21 -8 32 -17 20 -18 20 -18 2 10
-18 29 -30 34 -40 17z"/>
<path d="M3800 3180 c0 -5 5 -10 11 -10 5 0 7 5 4 10 -3 6 -8 10 -11 10 -2 0
-4 -4 -4 -10z"/>
<path d="M4020 3168 c0 -18 6 -24 23 -25 12 0 16 1 9 4 -6 3 -10 8 -7 13 3 4
-2 13 -10 20 -13 10 -15 9 -15 -12z"/>
<path d="M3637 3155 c3 -8 9 -12 14 -9 12 7 11 11 -5 17 -10 4 -13 1 -9 -8z"/>
<path d="M3915 3160 c-3 -5 -1 -10 4 -10 6 0 11 5 11 10 0 6 -2 10 -4 10 -3 0
-8 -4 -11 -10z"/>
<path d="M3351 3114 c0 -11 3 -14 6 -6 3 7 2 16 -1 19 -3 4 -6 -2 -5 -13z"/>
<path d="M3566 3121 c-4 -7 -5 -15 -2 -18 9 -9 19 4 14 18 -4 11 -6 11 -12 0z"/>
<path d="M4501 3125 c1 -19 18 -51 18 -35 0 8 -4 22 -9 30 -5 8 -9 11 -9 5z"/>
<path d="M4570 3121 c0 -5 5 -13 10 -16 6 -3 10 -2 10 4 0 5 -4 13 -10 16 -5
3 -10 2 -10 -4z"/>
<path d="M3160 3108 c0 -11 28 -10 35 1 3 6 -4 9 -15 8 -11 -1 -20 -5 -20 -9z"/>
<path d="M3400 3100 c8 -5 20 -10 25 -10 6 0 3 5 -5 10 -8 5 -19 10 -25 10 -5
0 -3 -5 5 -10z"/>
<path d="M4417 3099 c7 -7 15 -10 18 -7 3 3 -2 9 -12 12 -14 6 -15 5 -6 -5z"/>
<path d="M3066 3073 c-6 -14 -5 -15 5 -6 7 7 10 15 7 18 -3 3 -9 -2 -12 -12z"/>
<path d="M3110 3070 c-13 -8 -12 -10 3 -10 9 0 17 5 17 10 0 12 -1 12 -20 0z"/>
<path d="M2970 3061 c0 -6 4 -13 10 -16 6 -3 7 1 4 9 -7 18 -14 21 -14 7z"/>
<path d="M3015 3049 c-4 -6 -5 -12 -2 -15 2 -3 7 2 10 11 7 17 1 20 -8 4z"/>
<path d="M3085 3040 c-3 -5 -1 -10 4 -10 6 0 11 5 11 10 0 6 -2 10 -4 10 -3 0
-8 -4 -11 -10z"/>
<path d="M2121 2987 c2 -1 13 -9 24 -17 19 -14 19 -14 6 3 -7 9 -18 17 -24 17
-6 0 -8 -1 -6 -3z"/>
<path d="M2615 2980 c-6 -9 -4 -11 5 -5 10 6 12 4 7 -9 -4 -10 -3 -15 3 -11 9
6 14 -8 11 -27 0 -5 5 -8 12 -9 6 0 22 -2 35 -5 14 -2 21 0 17 6 -3 5 -1 10 4
10 6 0 11 -4 11 -10 0 -6 9 -5 24 1 15 7 24 20 24 34 0 18 -3 21 -13 12 -8 -7
-9 -14 -3 -18 16 -10 -22 -20 -40 -10 -9 4 -23 6 -31 3 -8 -3 -24 7 -37 23
-16 20 -24 24 -29 15z"/>
<path d="M2586 2971 c-3 -4 -17 -7 -31 -6 -14 2 -27 -1 -31 -6 -3 -5 -10 -6
-16 -3 -7 4 -8 2 -4 -5 4 -6 12 -9 17 -6 5 4 9 2 9 -4 0 -5 -8 -14 -17 -20
-10 -5 -14 -13 -10 -17 8 -8 47 29 47 46 0 13 17 13 22 0 2 -6 9 -1 16 10 7
11 10 20 8 20 -3 0 -7 -4 -10 -9z"/>
<path d="M2710 2964 c0 -8 5 -12 10 -9 6 3 10 10 10 16 0 5 -4 9 -10 9 -5 0
-10 -7 -10 -16z"/>
<path d="M2077 2959 c7 -7 15 -10 18 -7 3 3 -2 9 -12 12 -14 6 -15 5 -6 -5z"/>
<path d="M2438 2948 c-9 -5 -4 -8 15 -8 15 0 27 -5 27 -12 0 -6 2 -9 5 -6 3 3
3 12 0 20 -6 16 -27 19 -47 6z"/>
<path d="M2284 2939 c-4 -7 -3 -9 4 -5 5 3 13 0 15 -6 4 -9 6 -10 6 -1 1 17
-16 25 -25 12z"/>
<path d="M2590 2939 c0 -5 5 -7 10 -4 6 3 10 8 10 11 0 2 -4 4 -10 4 -5 0 -10
-5 -10 -11z"/>
<path d="M2253 2905 c-3 -9 -3 -18 -1 -21 3 -3 8 4 11 16 6 23 -1 27 -10 5z"/>
<path d="M2060 2906 c0 -2 7 -7 16 -10 8 -3 12 -2 9 4 -6 10 -25 14 -25 6z"/>
<path d="M1976 2873 c-6 -14 -5 -15 5 -6 7 7 10 15 7 18 -3 3 -9 -2 -12 -12z"/>
<path d="M2082 2855 c-22 -12 -22 -13 -3 -18 13 -3 21 1 24 14 3 11 4 19 4 18
-1 -1 -12 -7 -25 -14z"/>
<path d="M2232 2850 c-15 -25 -15 -27 2 -27 7 0 14 11 14 24 0 28 0 28 -16 3z"/>
<path d="M4270 2855 c0 -8 5 -15 10 -15 6 0 10 7 10 15 0 8 -4 15 -10 15 -5 0
-10 -7 -10 -15z"/>
<path d="M2260 2830 c0 -11 -7 -20 -15 -20 -17 0 -19 -9 -7 -28 5 -7 16 -10
26 -6 12 4 14 10 6 19 -5 6 -7 15 -3 19 11 10 12 36 2 36 -5 0 -9 -9 -9 -20z"/>
<path d="M2410 2846 c0 -2 7 -7 16 -10 8 -3 12 -2 9 4 -6 10 -25 14 -25 6z"/>
<path d="M1987 2829 c7 -7 15 -10 18 -7 3 3 -2 9 -12 12 -14 6 -15 5 -6 -5z"/>
<path d="M1886 2818 c3 -5 10 -6 15 -3 13 9 11 12 -6 12 -8 0 -12 -4 -9 -9z"/>
<path d="M2045 2818 c-4 -10 -11 -16 -15 -13 -5 3 -8 -4 -7 -15 1 -20 2 -20
20 -1 11 10 17 25 14 32 -3 11 -6 10 -12 -3z"/>
<path d="M4506 2775 c-22 -20 -25 -28 -16 -45 6 -11 13 -56 17 -100 6 -78 17
-106 33 -80 4 6 8 -11 8 -39 2 -52 -12 -76 -23 -41 -3 11 -11 20 -16 20 -5 0
-9 37 -9 83 0 71 -3 84 -20 95 -23 14 -27 37 -5 28 9 -3 15 0 15 9 0 18 -17
28 -25 15 -4 -6 -15 -8 -25 -5 -10 3 -21 1 -25 -5 -3 -6 -11 -8 -16 -5 -5 4
-9 1 -9 -5 0 -6 -5 -8 -11 -4 -6 3 -14 2 -18 -3 -3 -6 -28 -20 -56 -33 -27
-12 -67 -38 -87 -57 -23 -23 -42 -33 -52 -30 -10 4 -21 -1 -28 -13 -7 -11 -18
-20 -25 -20 -24 0 -13 -46 16 -74 l30 -29 25 29 25 29 1 -25 c0 -14 8 -36 17
-50 23 -33 24 -60 1 -92 -16 -24 -17 -28 -4 -28 9 0 16 -5 16 -10 0 -6 16 -8
38 -6 20 3 43 2 49 -2 18 -11 -17 -57 -85 -111 -41 -34 -51 -46 -41 -53 11 -7
9 -8 -4 -4 -39 12 -550 -527 -658 -693 -35 -55 -39 -84 -8 -55 20 18 21 18 35
-1 16 -22 19 -39 4 -30 -5 3 -18 0 -29 -7 -16 -9 -23 -9 -36 2 -20 17 -15 22
-167 -168 -103 -127 -138 -152 -195 -137 -15 3 -81 63 -157 142 -127 131 -275
259 -345 299 -19 10 -46 30 -60 43 -43 39 -79 53 -99 41 -16 -11 -16 -11 0 -6
11 3 22 -2 29 -16 10 -19 9 -20 -10 -15 -14 3 -21 0 -21 -10 0 -16 -31 -14
-31 2 -1 6 -5 15 -10 21 -5 6 -6 20 -2 30 6 18 6 18 -10 2 -9 -9 -14 -24 -11
-32 3 -9 1 -16 -5 -16 -6 0 -11 5 -11 11 0 5 -5 7 -10 4 -6 -4 -8 -10 -6 -14
3 -3 -4 -7 -14 -7 -15 0 -19 7 -17 31 2 23 9 33 35 44 17 8 32 18 32 22 0 5
-52 31 -70 35 -3 0 -27 11 -55 23 -84 38 -129 53 -159 55 -16 0 -31 7 -33 14
-3 6 -9 12 -15 12 -6 0 -41 14 -77 31 -282 133 -413 185 -431 174 -6 -3 -10
-2 -10 3 0 6 -30 18 -68 27 -37 9 -125 33 -197 52 -71 19 -164 41 -205 48 -41
7 -115 22 -165 34 -108 25 -180 26 -259 6 -88 -23 -128 -45 -120 -64 9 -23 6
-54 -9 -78 -5 -8 -3 -13 6 -13 8 0 17 -7 21 -15 3 -8 12 -15 21 -15 8 0 15 -4
15 -10 0 -5 23 -32 50 -59 28 -27 50 -55 50 -61 0 -9 5 -9 17 1 10 7 15 9 11
5 -9 -10 24 -41 65 -62 15 -8 27 -19 27 -25 0 -6 4 -8 9 -4 6 3 19 -4 29 -16
11 -11 27 -21 35 -23 9 -1 25 -10 36 -20 11 -10 27 -16 35 -13 9 4 19 1 23 -6
7 -12 78 -48 158 -82 17 -6 47 -20 68 -29 21 -9 43 -13 49 -10 7 5 9 1 5 -9
-7 -18 -6 -18 33 -22 14 -1 41 -5 60 -9 136 -24 141 -25 188 -43 9 -3 23 -7
30 -9 8 -1 21 -6 30 -10 9 -3 30 -7 45 -8 15 0 31 -7 36 -14 4 -7 14 -12 22
-10 9 2 14 -5 13 -18 0 -12 7 -21 17 -21 13 -1 16 3 12 15 -4 12 -3 14 5 7 5
-5 12 -18 14 -28 3 -16 8 -14 46 13 23 18 42 26 42 20 0 -7 6 -10 14 -7 7 3
19 0 26 -6 10 -9 14 -9 17 1 4 10 9 8 20 -5 8 -10 12 -13 10 -8 -3 6 17 10 51
10 38 0 57 -4 58 -12 3 -26 4 -26 19 -7 8 11 15 14 15 7 0 -7 5 -13 11 -13 17
0 41 29 33 41 -4 7 -1 10 7 7 8 -3 13 -12 11 -21 -1 -8 2 -18 8 -22 6 -3 7 0
4 9 -9 23 10 19 43 -8 20 -17 34 -22 44 -15 11 7 9 9 -8 9 -13 0 -23 4 -23 8
0 8 8 8 52 3 4 -1 5 -7 2 -15 -4 -11 0 -13 18 -9 13 3 28 9 33 13 6 5 27 1 48
-7 30 -12 35 -18 26 -29 -10 -12 -8 -13 7 -8 16 5 16 3 -3 -14 -29 -26 -29
-27 4 -30 36 -3 51 -18 34 -35 -11 -10 -13 -9 -8 5 4 12 2 15 -9 11 -8 -3 -13
-12 -10 -20 9 -22 -23 -28 -40 -7 -15 18 -15 18 -10 1 3 -10 6 -23 6 -28 0 -6
8 -8 18 -5 16 5 18 1 17 -30 0 -20 5 -43 12 -50 19 -18 16 -29 -4 -13 -15 13
-16 11 -9 -15 5 -19 2 -36 -10 -53 -9 -14 -11 -23 -6 -19 6 3 14 1 18 -5 4 -8
3 -9 -4 -5 -7 4 -12 2 -12 -5 0 -8 -4 -8 -15 1 -12 10 -15 10 -15 -4 0 -9 4
-16 10 -16 5 0 7 -7 4 -15 -4 -8 -1 -15 5 -15 6 0 8 -7 5 -15 -4 -8 -18 -15
-33 -15 -20 0 -22 3 -11 9 8 6 18 7 22 5 4 -3 8 -1 8 5 0 18 -17 20 -39 5 -12
-8 -19 -19 -16 -24 10 -17 -6 -38 -26 -33 -19 5 -27 43 -9 43 6 0 10 4 10 9 0
5 -9 7 -20 4 -11 -3 -20 -13 -20 -22 0 -9 -5 -23 -11 -31 -9 -12 -10 -12 -5 3
4 14 1 18 -12 15 -10 -2 -16 -11 -14 -21 2 -9 -1 -17 -7 -17 -17 0 -19 25 -2
43 14 17 14 20 -3 32 -12 9 -16 20 -11 34 3 12 2 21 -3 21 -17 0 -21 -27 -7
-54 16 -31 12 -33 -14 -7 -12 12 -17 27 -14 45 3 14 1 26 -5 26 -5 0 -9 -16
-8 -35 1 -19 -2 -35 -6 -35 -5 0 -8 -9 -8 -21 0 -11 -4 -18 -10 -14 -5 3 -7
12 -3 20 3 8 2 26 -1 39 -4 18 -11 23 -26 19 -11 -3 -20 0 -20 6 0 6 7 11 16
11 9 0 14 6 11 13 -2 6 2 26 10 44 17 42 16 48 -2 33 -13 -11 -15 -10 -9 6 5
18 5 18 -6 0 -10 -14 -10 -20 0 -26 13 -8 0 -45 -14 -38 -4 1 -14 -14 -21 -34
-7 -21 -9 -35 -4 -32 5 3 9 1 9 -5 0 -5 -5 -13 -10 -16 -6 -4 -7 -11 -4 -17 4
-6 -1 -8 -15 -3 -16 5 -21 2 -21 -10 0 -9 9 -19 20 -22 11 -3 20 -10 20 -15 0
-5 -4 -7 -9 -4 -5 3 -11 -3 -14 -14 -3 -11 -11 -20 -19 -20 -10 0 -10 2 -1 8
13 8 7 52 -7 52 -13 0 -32 -29 -26 -38 3 -6 -1 -15 -8 -21 -8 -7 -16 -8 -19
-4 -7 12 11 53 24 53 8 0 10 12 6 35 -3 19 -2 35 4 35 5 0 9 5 9 10 0 14 -16
12 -33 -5 -8 -8 -18 -11 -22 -7 -5 4 -5 2 -2 -4 4 -7 -1 -30 -11 -51 -13 -30
-23 -39 -40 -38 -14 1 -21 -3 -20 -13 2 -9 -7 -16 -22 -18 -21 -3 -22 -2 -7 7
9 5 17 19 17 30 0 17 3 18 20 9 16 -8 20 -8 20 4 0 8 -6 17 -12 19 -8 4 -4 8
9 12 26 8 31 25 8 25 -24 0 -17 19 10 26 15 4 25 13 25 25 0 10 8 23 18 28 15
9 15 12 2 21 -14 9 -7 14 13 11 16 -3 -3 17 -21 21 -13 4 -18 -1 -20 -19 -3
-32 -12 -48 -21 -35 -4 7 -12 8 -21 2 -13 -8 -13 -10 1 -10 9 0 23 -7 30 -16
12 -15 11 -16 -11 -10 -19 6 -21 5 -10 -3 16 -11 16 -11 -32 -15 -21 -2 -27
-18 -12 -34 8 -8 13 -17 10 -19 -8 -8 -36 24 -36 40 0 10 -7 13 -20 10 -11 -3
-20 -10 -20 -16 0 -6 -2 -8 -5 -5 -8 8 27 71 49 90 18 15 19 17 4 18 -9 0 -20
-4 -23 -10 -3 -5 -13 -10 -22 -10 -9 0 -22 -8 -30 -17 -14 -17 -14 -17 -9 -1
3 10 0 18 -5 18 -6 0 -9 -9 -6 -20 3 -11 1 -20 -5 -20 -6 0 -8 -6 -5 -14 3 -7
-3 -27 -13 -44 -12 -19 -15 -33 -9 -39 6 -6 4 -14 -6 -23 -13 -10 -15 -9 -15
8 0 16 -5 20 -17 16 -10 -3 -5 2 10 11 15 9 25 21 21 27 -4 7 -10 5 -16 -6 -5
-9 -14 -14 -19 -10 -14 9 9 34 32 34 13 0 19 7 18 23 -1 16 -2 18 -6 5 -2 -10
-13 -18 -23 -18 -16 0 -18 4 -11 22 5 13 16 22 24 22 8 -1 18 7 20 17 5 18 3
18 -21 5 -15 -8 -36 -18 -47 -21 -13 -5 -15 -9 -7 -12 6 -3 12 -11 12 -19 0
-7 -6 -11 -14 -8 -11 4 -14 -1 -12 -20 2 -14 -1 -26 -6 -26 -5 0 -6 -5 -3 -10
4 -6 11 -8 16 -5 5 4 9 1 9 -4 0 -11 -7 -13 -45 -14 -42 0 -56 3 -50 13 5 8
11 8 20 0 9 -8 17 -6 29 5 9 9 16 21 16 26 0 14 -48 11 -53 -3 -2 -7 -7 -10
-11 -7 -4 4 4 18 17 33 13 14 27 23 30 20 3 -3 11 -3 17 1 8 5 8 10 0 20 -8 9
-8 15 0 20 5 3 10 14 10 23 -1 10 -10 0 -21 -20 -13 -25 -26 -38 -40 -38 -13
0 -19 -5 -16 -13 3 -7 -1 -21 -9 -32 -8 -10 -14 -13 -14 -7 0 7 -7 12 -16 12
-8 0 -13 -4 -10 -9 3 -5 -1 -14 -8 -20 -10 -8 -16 -9 -21 -1 -3 5 -1 10 4 10
6 0 10 5 8 12 -1 6 9 17 21 24 13 6 29 17 35 24 17 18 -33 2 -51 -16 -7 -8
-17 -14 -22 -14 -4 0 -10 -10 -14 -22 -4 -18 -8 -20 -18 -10 -7 7 -13 20 -13
30 0 9 -6 18 -12 18 -30 3 -33 4 -33 12 0 5 10 8 23 8 13 -1 22 5 22 14 0 10
-9 14 -29 13 -31 -2 -52 -23 -34 -34 7 -4 6 -13 -2 -29 -6 -12 -10 -23 -8 -24
7 -5 247 -76 303 -90 124 -30 385 -69 605 -89 206 -18 742 -15 925 6 373 43
563 77 774 137 113 32 224 62 246 66 66 11 166 54 314 134 86 46 172 208 186
350 6 61 15 96 36 145 16 38 28 95 18 90 -5 -4 -9 -14 -9 -23 0 -15 -2 -15
-11 -2 -8 11 -9 9 -3 -10 3 -14 3 -22 -1 -18 -5 4 -14 3 -22 -4 -11 -8 -12 -7
-7 6 12 30 -14 16 -27 -16 -17 -42 -66 -91 -82 -82 -8 5 -8 3 1 -9 12 -15 11
-16 -17 -12 -28 3 -30 2 -20 -16 9 -17 7 -21 -10 -26 -12 -3 -21 -12 -21 -19
0 -8 -7 -14 -15 -14 -18 0 -19 12 -3 28 8 8 9 12 1 12 -6 0 -13 -4 -15 -10 -2
-5 -9 -6 -17 -1 -12 8 -12 12 2 26 10 9 15 21 11 26 -5 9 -34 -13 -34 -26 0
-4 -7 -13 -15 -21 -13 -14 -15 -13 -15 10 0 14 -4 26 -10 26 -5 0 -7 -7 -4
-15 4 -8 1 -15 -5 -15 -6 0 -11 -9 -11 -20 0 -27 -14 -25 -38 5 -25 31 -29 31
-29 0 0 -26 12 -34 20 -12 3 6 6 2 6 -10 1 -26 -2 -27 -29 -13 -14 7 -20 6
-25 -8 -7 -15 -8 -15 -15 3 -8 18 -9 18 -9 -5 -1 -14 -6 -32 -12 -40 -8 -12
-9 -9 -5 13 4 15 2 27 -4 27 -5 0 -10 8 -10 17 0 15 -2 15 -14 -2 -9 -13 -11
-28 -5 -49 6 -21 6 -27 -2 -19 -6 6 -11 27 -12 47 -1 20 -5 36 -9 36 -5 0 -1
14 7 31 9 17 14 33 11 36 -3 3 -10 -6 -16 -21 -5 -15 -18 -29 -27 -32 -34 -10
-48 -22 -47 -38 1 -9 -2 -14 -6 -11 -5 3 -10 0 -12 -6 -2 -7 -9 -5 -17 5 -12
14 -12 16 4 10 12 -5 16 -4 12 3 -4 6 -1 14 5 17 11 5 11 7 0 12 -6 3 -10 10
-6 15 3 5 -1 9 -10 9 -8 0 -17 6 -19 13 -3 7 -6 5 -6 -5 -1 -24 2 -34 12 -30
5 1 6 -2 2 -8 -3 -6 -11 -7 -17 -4 -7 5 -9 2 -6 -7 4 -9 -2 -14 -18 -15 -28
-2 -31 10 -6 26 15 10 15 11 0 6 -9 -3 -19 0 -22 7 -2 7 -5 4 -5 -5 -1 -22
-21 -24 -21 -3 0 23 -16 18 -28 -10 -6 -14 -19 -25 -27 -25 -9 0 -13 5 -10 10
4 6 11 8 16 5 5 -4 9 5 9 19 0 14 -5 28 -11 32 -7 4 -9 0 -5 -14 5 -13 1 -22
-10 -26 -9 -4 -19 -4 -22 -2 -8 8 32 69 43 65 6 -2 9 -7 8 -11 -2 -4 4 -5 12
-2 8 4 15 15 15 25 0 21 20 27 20 7 1 -7 14 2 30 21 23 27 32 32 43 23 8 -7
17 -9 20 -5 4 3 14 0 23 -8 16 -13 17 -11 11 12 -8 32 0 41 24 28 13 -7 19 -6
19 1 0 6 7 4 16 -5 21 -20 29 -13 15 13 -10 19 -6 32 11 32 5 0 7 -4 4 -9 -4
-5 2 -8 11 -6 10 2 22 4 26 4 4 1 7 8 5 17 -2 10 5 18 15 19 9 2 17 -3 17 -11
0 -8 5 -14 10 -14 6 0 10 10 10 23 0 12 5 29 11 37 9 13 10 12 5 -3 -5 -14 -2
-17 13 -12 13 4 21 -1 26 -17 7 -22 7 -22 12 -3 3 11 12 26 21 33 10 7 17 18
17 25 0 7 10 13 23 15 12 2 22 8 22 14 0 5 10 18 23 29 12 10 16 18 10 19 -18
0 -16 25 2 40 12 10 15 10 15 -4 0 -25 20 -19 21 7 0 21 1 21 9 2 7 -18 8 -18
15 -3 4 10 25 36 47 57 25 26 37 45 32 53 -4 7 2 5 14 -6 l21 -18 -4 43 c-5
53 2 82 19 76 9 -4 11 2 8 19 -2 14 0 24 7 24 6 0 11 5 11 11 0 5 -4 7 -10 4
-6 -3 -7 1 -4 10 4 8 17 18 31 21 21 6 24 12 21 40 -1 18 1 36 5 40 4 4 7 24
7 45 0 21 5 41 10 44 12 8 13 75 1 75 -18 0 -20 30 -2 39 13 7 18 6 18 -4 0
-8 -5 -11 -11 -8 -6 3 -6 0 1 -7 6 -7 19 -10 28 -6 14 5 15 9 5 21 -6 8 -8 20
-4 26 5 8 3 9 -7 4 -12 -8 -12 -6 0 8 7 9 10 17 6 17 -4 0 -2 7 5 15 7 8 9 15
5 15 -4 0 -1 7 6 16 12 15 11 16 -9 10 -14 -5 -22 -3 -22 4 0 8 -6 8 -20 0
-22 -12 -26 -40 -10 -71 7 -13 7 -19 1 -19 -6 0 -18 14 -26 30 -18 35 -24 33
-105 -24 -25 -18 -67 -45 -94 -61 -47 -27 -48 -27 -36 -6 6 13 10 47 8 76 -1
29 0 51 5 48 4 -2 7 -14 7 -25 0 -20 1 -20 20 -3 10 9 24 32 30 50 11 33 33
50 51 39 5 -3 9 -1 9 5 0 6 -11 13 -25 17 -14 3 -25 10 -25 15 0 6 9 5 20 -1
12 -6 33 -10 47 -8 25 3 26 4 10 20 -12 12 -13 18 -4 21 7 3 5 8 -8 13 -11 4
-33 20 -48 36 -16 15 -33 28 -38 28 -19 0 -40 30 -46 65 -5 30 -3 34 11 29 12
-4 16 0 16 15 0 26 -1 26 -34 -4z m-51 -155 c16 -16 23 -30 17 -30 -10 0 -10
-5 -1 -22 7 -14 7 -19 1 -13 -6 6 -12 16 -14 24 -2 8 -16 27 -33 42 -21 20
-25 29 -14 29 8 0 28 -13 44 -30z m217 -435 c3 -13 1 -22 -3 -19 -9 5 -13 44
-5 44 2 0 6 -11 8 -25z m-66 -57 c4 -30 3 -31 -10 -12 -8 10 -11 20 -6 22 5 2
6 11 3 20 -3 9 -3 14 2 10 4 -4 9 -22 11 -40z m61 -45 c-3 -10 -5 -4 -5 12 0
17 2 24 5 18 2 -7 2 -21 0 -30z m-100 -5 c-3 -8 -6 -5 -6 6 -1 11 2 17 5 13 3
-3 4 -12 1 -19z m-3817 -19 c0 -7 10 -9 28 -4 54 14 92 17 92 6 0 -6 11 -11
25 -11 14 0 24 -3 24 -7 -1 -5 -1 -27 0 -50 1 -35 4 -42 21 -40 19 1 29 17 11
17 -4 0 -8 12 -7 28 0 15 -3 37 -7 50 -6 14 -4 22 3 22 6 0 9 -4 6 -8 -2 -4
-1 -14 5 -22 7 -13 9 -13 9 -1 0 12 3 12 18 -1 22 -19 72 -16 84 5 5 9 14 17
20 17 7 0 6 -6 -2 -15 -19 -23 -3 -31 19 -11 12 11 21 14 26 7 3 -6 1 -11 -5
-11 -6 0 -8 -5 -4 -11 4 -6 19 -9 38 -5 18 3 26 2 18 -2 -16 -11 -5 -42 15
-42 9 0 13 6 10 13 -7 18 8 41 21 33 6 -4 8 -14 5 -23 -4 -11 -3 -14 5 -9 7 4
12 1 12 -10 0 -11 -6 -15 -20 -11 -11 3 -22 1 -25 -4 -3 -4 -12 -6 -19 -3 -23
9 -28 -27 -6 -43 11 -8 20 -21 20 -29 0 -8 6 -14 14 -14 7 0 25 -11 39 -25 14
-15 28 -22 31 -16 4 5 1 13 -6 18 -7 4 -18 18 -25 30 -10 17 -9 22 3 27 9 3
21 3 26 -1 7 -4 8 -1 3 7 -6 10 -4 12 8 7 11 -4 14 -2 10 9 -3 9 1 14 12 14
12 0 16 -6 12 -20 -3 -11 -1 -23 4 -26 9 -5 13 9 9 35 -1 12 1 12 13 3 7 -6
18 -8 23 -4 5 4 0 -4 -11 -17 -11 -14 -15 -22 -10 -18 6 3 17 2 25 -3 16 -10
21 -50 6 -50 -5 0 -4 -6 3 -12 11 -10 14 -10 18 0 3 6 10 12 17 12 7 0 18 10
24 23 7 12 11 15 10 7 -1 -8 2 -22 6 -31 4 -9 -1 -30 -13 -50 -16 -28 -20 -52
-12 -76 1 -1 12 2 26 7 24 9 55 4 55 -9 0 -4 -8 -7 -17 -8 -10 0 -34 -3 -53
-6 -19 -3 -39 -6 -45 -6 -5 -1 1 -8 13 -17 22 -15 23 -17 5 -36 -16 -18 -18
-18 -29 -3 -7 9 -10 24 -7 35 3 12 -3 22 -16 29 -17 10 -21 9 -21 -3 0 -8 5
-18 10 -21 15 -9 12 -41 -6 -56 -9 -7 -29 -12 -46 -11 -18 2 -27 -2 -23 -8 3
-5 0 -7 -8 -4 -16 6 -17 20 -4 42 5 8 2 12 -8 12 -11 0 -15 5 -12 15 4 8 2 17
-3 20 -6 4 -10 0 -10 -8 0 -23 -25 -27 -38 -7 -7 12 -7 21 0 28 6 6 8 18 4 27
-5 14 -9 15 -22 5 -19 -16 -33 -3 -36 33 -3 29 -16 33 -77 21 -19 -4 -31 -13
-31 -23 0 -14 -2 -14 -10 -1 -5 8 -10 11 -10 7 0 -4 -10 -2 -22 5 -13 7 -27
11 -32 10 -5 -2 -20 7 -33 20 -18 17 -26 19 -32 10 -6 -10 -21 -1 -55 33 -26
25 -44 50 -41 55 4 6 -4 9 -17 7 -17 -1 -24 4 -26 19 -2 15 -12 24 -33 28 -16
3 -29 12 -29 19 0 8 -10 26 -21 41 -26 33 -17 48 10 18 19 -23 46 -29 56 -12
3 6 -1 10 -9 10 -19 0 -21 11 -4 28 15 15 28 15 28 1z m295 -9 c-3 -5 -14 -10
-23 -10 -15 0 -15 2 -2 10 20 13 33 13 25 0z m3446 -60 l-9 -45 0 53 c1 29 4
50 9 45 5 -5 5 -29 0 -53z m67 29 c-2 -6 -7 -10 -12 -9 -5 1 -13 -4 -17 -12
-7 -10 -9 -9 -9 4 0 9 8 19 18 21 9 3 19 5 20 6 2 0 2 -4 0 -10z m-3263 -43
c-31 -14 -41 -13 -32 1 3 5 18 9 34 10 l28 2 -30 -13z m155 0 c0 -3 -4 -8 -10
-11 -5 -3 -10 -1 -10 4 0 6 5 11 10 11 6 0 10 -2 10 -4z m2925 -6 c-3 -5 -12
-10 -18 -10 -7 0 -6 4 3 10 19 12 23 12 15 0z m175 6 c0 -2 -7 -7 -16 -10 -8
-3 -12 -2 -9 4 6 10 25 14 25 6z m-3076 -21 c-4 -8 -8 -15 -10 -15 -2 0 -4 7
-4 15 0 8 4 15 10 15 5 0 7 -7 4 -15z m-233 -38 c-13 -13 -41 -1 -41 17 0 13
4 14 25 4 16 -7 22 -15 16 -21z m313 7 c3 -8 2 -12 -4 -9 -6 3 -10 10 -10 16
0 14 7 11 14 -7z m2847 -27 c-10 -9 -11 -8 -5 6 3 10 9 15 12 12 3 -3 0 -11
-7 -18z m-2901 9 c0 -3 -4 -8 -10 -11 -5 -3 -10 -1 -10 4 0 6 5 11 10 11 6 0
10 -2 10 -4z m173 -36 c20 -1 20 -2 5 -11 -12 -7 -24 -6 -38 1 -24 13 -27 25
-4 16 9 -3 25 -6 37 -6z m127 -20 c0 -5 -2 -10 -4 -10 -3 0 -8 5 -11 10 -3 6
-1 10 4 10 6 0 11 -4 11 -10z m-166 -9 c3 -5 15 -7 26 -4 14 4 20 0 20 -11 0
-9 -4 -16 -10 -16 -5 0 -10 4 -10 8 0 4 -9 8 -20 9 -11 1 -20 -2 -20 -8 0 -5
7 -9 15 -9 8 0 15 -4 15 -9 0 -5 9 -13 20 -16 16 -5 19 -12 14 -28 -5 -18 -4
-20 7 -10 10 10 18 7 37 -15 20 -20 27 -23 30 -12 6 18 32 45 32 32 0 -5 -3
-12 -7 -16 -13 -13 -12 -44 1 -49 8 -3 20 2 28 10 11 15 11 16 -4 10 -27 -10
-22 9 9 38 27 24 59 37 36 14 -6 -6 -9 -17 -7 -24 3 -7 0 -16 -6 -20 -7 -4 -2
-15 14 -30 17 -16 23 -30 20 -46 -5 -23 -5 -23 10 -5 8 10 19 15 25 11 6 -3
11 1 11 11 0 12 3 14 13 5 15 -12 37 3 37 26 0 7 5 13 11 13 6 0 9 7 5 15 -3
8 -1 15 3 15 15 0 22 -33 9 -42 -15 -9 -2 -10 30 -2 12 4 22 12 22 20 0 8 6
11 16 7 8 -3 13 -12 10 -19 -3 -8 1 -14 10 -14 8 0 13 4 10 9 -9 14 47 18 73
5 23 -12 23 -12 2 -19 -12 -3 -21 -11 -21 -17 0 -6 6 -6 15 2 12 10 15 9 15
-6 0 -14 3 -15 8 -6 5 7 16 10 25 6 10 -3 17 -1 17 6 0 6 4 9 10 5 6 -4 5 -16
-1 -33 -12 -30 -12 -32 3 -49 7 -9 7 -13 -1 -14 -6 -1 -15 -2 -21 -3 -5 0 -10
-4 -10 -8 0 -5 0 -17 0 -28 0 -12 7 -20 16 -20 9 0 14 -3 12 -7 -3 -5 -10 -22
-17 -40 -8 -20 -18 -30 -26 -27 -10 4 -12 0 -8 -15 6 -24 -9 -28 -26 -7 -9 11
-9 15 1 18 7 3 -9 5 -35 5 -26 1 -54 7 -63 14 -15 12 -15 22 2 64 7 19 7 19
-13 2 -11 -9 -22 -14 -25 -11 -4 3 -18 -2 -32 -11 -14 -9 -30 -14 -35 -10 -7
3 -8 0 -5 -9 4 -9 -1 -18 -10 -22 -9 -3 -16 -13 -16 -21 0 -8 -5 -11 -12 -7
-11 7 -19 9 -78 16 -15 2 -26 11 -29 23 -4 23 -32 46 -45 37 -6 -3 -6 3 -1 14
4 10 7 27 7 36 0 9 5 19 13 22 7 2 21 21 30 40 10 20 24 36 31 36 8 0 14 5 14
11 0 16 -59 -23 -66 -43 -3 -10 -11 -18 -18 -18 -8 0 -19 -6 -25 -14 -9 -11
-8 -18 4 -30 15 -14 14 -15 -14 -12 -17 2 -31 -1 -31 -5 0 -15 -30 -10 -36 6
-9 23 -26 18 -19 -5 5 -15 3 -18 -8 -14 -10 3 -18 -2 -22 -15 -3 -12 -10 -19
-15 -16 -5 3 -10 0 -12 -7 -5 -15 -28 -1 -28 18 0 8 10 14 25 14 18 0 26 7 31
24 7 29 -1 46 -22 46 -10 0 -13 9 -8 38 l5 37 -18 -34 c-11 -18 -23 -34 -28
-35 -20 -2 -16 37 5 59 12 12 17 24 11 26 -17 6 -21 107 -4 113 8 3 12 10 9
15 -3 5 3 7 14 4 18 -5 25 5 21 30 -1 10 17 9 23 -2z m-74 -11 c0 -5 -4 -10
-10 -10 -5 0 -10 5 -10 10 0 6 5 10 10 10 6 0 10 -4 10 -10z m194 1 c4 -5 -3
-7 -14 -4 -23 6 -26 13 -6 13 8 0 17 -4 20 -9z m-13 -34 c-15 -15 -14 -32 2
-19 10 8 13 7 14 -6 1 -19 -32 -28 -42 -12 -9 14 14 62 26 54 8 -4 8 -9 0 -17z
m52 12 c-6 -6 -9 -19 -6 -28 4 -13 2 -13 -7 2 -12 19 -6 37 13 37 8 0 8 -3 0
-11z m2381 -15 c5 -14 4 -15 -9 -4 -17 14 -19 20 -6 20 5 0 12 -7 15 -16z
m-163 -31 c-9 -6 -18 -9 -21 -6 -3 3 0 8 7 10 7 2 9 12 6 21 -6 14 -5 15 9 2
14 -13 14 -16 -1 -27z m-2531 -3 c0 -11 -4 -20 -9 -20 -5 0 -11 9 -14 20 -3
13 0 20 9 20 8 0 14 -9 14 -20z m2630 -20 c0 -5 -2 -10 -4 -10 -3 0 -8 5 -11
10 -3 6 -1 10 4 10 6 0 11 -4 11 -10z m-3060 -28 c-7 -3 -19 3 -28 13 -16 15
-15 16 12 4 15 -7 23 -15 16 -17z m2969 -11 c-1 -20 -2 -22 -6 -6 -3 11 -10
26 -15 33 -8 9 -7 11 6 6 10 -4 16 -16 15 -33z m-2902 9 c1 -11 -2 -20 -8 -20
-10 0 -12 23 -2 33 9 9 9 10 10 -13z m31 -15 c-3 -3 -9 2 -12 12 -6 14 -5 15
5 6 7 -7 10 -15 7 -18z m356 -15 c-22 -9 -29 -6 -20 9 4 6 14 7 23 4 15 -6 14
-7 -3 -13z m-349 -11 c-5 -6 -55 0 -55 7 0 3 13 3 29 2 16 -1 28 -5 26 -9z
m325 -36 c0 -10 -20 -40 -20 -31 0 3 -3 13 -6 22 -4 11 -1 16 10 16 9 0 16 -3
16 -7z m-245 -13 c3 -5 1 -10 -4 -10 -6 0 -11 5 -11 10 0 6 2 10 4 10 3 0 8
-4 11 -10z m280 -18 c-7 -2 -15 -11 -17 -20 -3 -11 -6 -7 -10 11 -4 21 -2 27
8 23 8 -3 14 0 14 7 0 7 4 6 10 -3 7 -11 5 -16 -5 -18z m-78 12 c-3 -3 -12 -4
-19 -1 -8 3 -5 6 6 6 11 1 17 -2 13 -5z m909 -3 c-4 -5 0 -11 6 -14 7 -2 9 -8
5 -13 -4 -5 -12 -2 -17 6 -13 20 -12 30 1 30 5 0 8 -4 5 -9z m-986 -42 c0 -5
-4 -9 -10 -9 -5 0 -10 5 -10 11 0 5 -5 7 -12 3 -7 -4 -8 -3 -4 4 7 12 36 5 36
-9z m210 11 c12 0 11 -3 -4 -11 -14 -9 -22 -8 -34 4 -13 14 -13 15 4 12 10 -2
26 -4 34 -5z m20 -36 c-18 -21 -24 -10 -8 15 7 12 14 17 16 11 2 -6 -2 -17 -8
-26z m736 6 c20 0 17 -9 -8 -31 -20 -16 -68 -27 -68 -15 0 10 55 63 58 55 2
-5 10 -9 18 -9z m-793 -29 c36 -14 27 -34 -9 -20 -14 5 -35 16 -46 24 -21 14
-21 14 3 11 13 -2 37 -8 52 -15z m-183 -11 c0 -5 -4 -10 -10 -10 -5 0 -10 5
-10 10 0 6 5 10 10 10 6 0 10 -4 10 -10z m37 -6 c-3 -3 -12 -4 -19 -1 -8 3 -5
6 6 6 11 1 17 -2 13 -5z m273 -8 c0 -3 -4 -8 -10 -11 -5 -3 -10 -1 -10 4 0 6
5 11 10 11 6 0 10 -2 10 -4z m2981 -13 c13 -16 12 -17 -3 -4 -17 13 -22 21
-14 21 2 0 10 -8 17 -17z m-3096 -13 c3 -4 -6 -7 -20 -7 -13 0 -26 5 -28 12
-6 13 40 9 48 -5z m29 5 c3 -8 1 -15 -4 -15 -6 0 -10 7 -10 15 0 8 2 15 4 15
2 0 6 -7 10 -15z m893 -1 c-3 -3 -12 -4 -19 -1 -8 3 -5 6 6 6 11 1 17 -2 13
-5z m101 -16 c18 -18 15 -45 -5 -45 -23 0 -52 27 -46 43 6 17 35 18 51 2z
m-88 -17 c0 -6 -4 -13 -10 -16 -5 -3 -10 1 -10 9 0 9 5 16 10 16 6 0 10 -4 10
-9z m-30 -16 c0 -8 -4 -15 -9 -15 -13 0 -22 16 -14 24 11 11 23 6 23 -9z
m1977 -29 c0 -8 -6 -12 -14 -9 -7 3 -13 9 -13 14 0 5 6 9 13 9 8 0 14 -6 14
-14z m57 -1 c3 -8 1 -15 -4 -15 -6 0 -10 7 -10 15 0 8 2 15 4 15 2 0 6 -7 10
-15z m-330 -11 c3 -8 2 -12 -4 -9 -6 3 -10 10 -10 16 0 14 7 11 14 -7z m-314
-30 c0 -5 -5 -3 -12 4 -7 7 -21 12 -32 13 -21 0 -21 1 -1 8 19 8 45 -7 45 -25z
m-2020 7 c0 -6 -4 -13 -10 -16 -5 -3 -10 1 -10 9 0 9 5 16 10 16 6 0 10 -4 10
-9z m884 -7 c3 7 8 6 15 -4 14 -19 14 -33 1 -25 -5 3 -10 -1 -10 -10 0 -13 4
-14 22 -4 19 10 20 9 13 -7 -4 -11 -7 -27 -7 -37 0 -9 -3 -15 -9 -12 -5 4 -9
-1 -9 -9 0 -9 5 -16 12 -16 6 0 1 -8 -10 -19 -12 -10 -22 -26 -22 -35 0 -11
-5 -14 -12 -10 -8 5 -9 2 -5 -9 7 -19 6 -20 -17 -11 -9 3 -12 12 -9 22 6 15 3
14 -15 -2 -12 -10 -28 -16 -37 -13 -10 4 -15 0 -16 -11 0 -10 -3 -12 -6 -4 -2
6 -8 10 -12 8 -4 -3 -13 0 -21 5 -13 9 -13 10 0 8 29 -3 40 1 40 16 0 8 -4 15
-9 15 -5 0 -7 9 -4 20 6 21 -20 29 -32 10 -3 -5 -11 -10 -16 -10 -6 0 -7 5 -4
10 3 6 1 10 -4 10 -6 0 -2 9 9 20 11 11 25 20 30 20 6 0 10 6 10 13 0 23 25
66 40 70 8 1 32 0 52 -4 24 -4 39 -2 42 5z m1314 -8 c-7 -8 -15 -12 -17 -11
-5 6 10 25 20 25 5 0 4 -6 -3 -14z m-334 -11 c-6 -16 -24 -21 -24 -7 0 11 11
22 21 22 5 0 6 -7 3 -15z m-839 -45 c3 -5 1 -10 -4 -10 -6 0 -11 5 -11 10 0 6
2 10 4 10 3 0 8 -4 11 -10z m-381 -15 c-4 -9 0 -15 10 -15 9 0 16 -5 16 -10 0
-7 -6 -7 -20 0 -21 11 -25 22 -13 33 10 11 13 8 7 -8z m55 -11 c-14 -18 -24
-11 -15 11 3 9 11 13 16 10 8 -5 7 -11 -1 -21z m248 11 c0 -8 -4 -12 -9 -9 -5
3 -6 10 -3 15 9 13 12 11 12 -6z m-289 -86 c-6 -4 -8 -14 -5 -23 4 -9 2 -16
-2 -16 -5 0 -16 -3 -24 -6 -11 -4 -13 1 -10 20 3 14 10 23 15 20 5 -3 12 4 15
16 4 16 8 18 14 9 4 -8 3 -16 -3 -20z m73 3 c-10 -3 -10 -6 -1 -12 8 -5 5 -9
-9 -13 -14 -3 -19 -1 -14 6 14 26 26 37 32 31 3 -4 0 -9 -8 -12z m179 -52 c0
-5 -4 -10 -9 -10 -6 0 -13 5 -16 10 -3 6 1 10 9 10 9 0 16 -4 16 -10z m-265
-10 c-3 -5 -11 -10 -16 -10 -6 0 -7 5 -4 10 3 6 11 10 16 10 6 0 7 -4 4 -10z
m164 -17 c6 -12 5 -26 -4 -43 -7 -14 -16 -33 -19 -42 -7 -25 -22 -22 -31 5 -8
26 -7 49 5 60 4 5 5 -3 3 -16 -3 -14 0 -33 7 -44 10 -15 11 -15 6 -1 -3 10 -1
20 5 24 6 3 8 12 5 20 -3 8 1 14 9 14 9 0 12 6 9 15 -4 8 -10 12 -15 9 -5 -3
-9 0 -9 5 0 17 18 13 29 -6z m-164 -13 c-3 -5 -11 -10 -16 -10 -6 0 -7 5 -4
10 3 6 11 10 16 10 6 0 7 -4 4 -10z m365 -15 c-7 -9 -15 -13 -19 -10 -3 3 1
10 9 15 21 14 24 12 10 -5z m-340 -5 c0 -5 -2 -10 -4 -10 -3 0 -8 5 -11 10 -3
6 -1 10 4 10 6 0 11 -4 11 -10z m55 -29 c-3 -12 -10 -21 -15 -21 -4 0 -3 11 3
24 14 29 22 27 12 -3z m-75 5 c0 -8 -4 -18 -10 -21 -5 -3 -10 -15 -10 -26 0
-10 -7 -19 -16 -19 -14 0 -14 2 0 22 9 12 16 30 16 40 0 10 5 18 10 18 6 0 10
-6 10 -14z m190 -50 c0 -3 -7 -6 -15 -6 -9 0 -15 9 -15 21 0 18 2 19 15 5 8
-8 15 -17 15 -20z m-103 7 c-10 -3 -16 -11 -13 -18 6 -16 -20 -40 -51 -48 -23
-5 -32 6 -14 17 5 3 7 15 4 26 -4 15 -2 19 10 14 9 -3 13 -12 10 -20 -3 -8 0
-14 6 -14 6 0 11 6 11 13 0 18 21 37 40 36 11 -1 10 -3 -3 -6z m46 -31 c-13
-2 -23 -9 -23 -16 0 -6 -9 -12 -20 -13 -16 -1 -18 1 -8 11 22 21 52 35 63 28
5 -4 0 -8 -12 -10z m170 -19 c-4 -11 -8 -10 -18 4 -10 13 -10 20 -2 25 14 9
27 -10 20 -29z m-323 7 c0 -5 -5 -10 -11 -10 -5 0 -7 5 -4 10 3 6 8 10 11 10
2 0 4 -4 4 -10z m186 -25 c-31 -29 -38 -31 -30 -10 4 8 11 12 17 8 6 -4 8 0 4
11 -4 9 -3 14 2 11 5 -3 13 0 16 6 4 5 10 8 13 5 3 -3 -7 -17 -22 -31z m-872
3 c-9 -13 -10 -18 -13 -38 0 -5 -5 -10 -10 -10 -11 0 -3 39 12 58 13 16 22 8
11 -10z m826 -17 c-6 -12 -15 -21 -21 -21 -6 0 -3 7 5 16 9 8 16 20 16 26 0 6
3 9 6 6 3 -4 1 -16 -6 -27z m100 9 c0 -5 -2 -10 -4 -10 -3 0 -8 5 -11 10 -3 6
-1 10 4 10 6 0 11 -4 11 -10z m-155 -8 c-3 -3 0 -11 5 -17 11 -13 -3 -65 -17
-65 -18 1 -35 18 -24 24 6 4 11 2 11 -3 0 -22 18 -10 22 14 4 17 1 25 -8 25
-8 0 -14 -5 -14 -12 0 -6 -2 -9 -5 -7 -9 10 7 46 21 46 8 0 12 -3 9 -5z m205
-1 c0 -5 -7 -12 -16 -15 -14 -5 -15 -4 -4 9 14 17 20 19 20 6z m-1360 -11 c0
-5 -2 -10 -4 -10 -3 0 -8 5 -11 10 -3 6 -1 10 4 10 6 0 11 -4 11 -10z m704 -5
c-4 -8 -10 -15 -15 -15 -4 0 -6 7 -3 15 4 8 10 15 15 15 4 0 6 -7 3 -15z m6
-45 c-12 -23 -30 -27 -30 -6 0 8 8 17 18 19 9 3 18 5 20 6 1 0 -2 -8 -8 -19z
m85 -2 c6 -4 0 -8 -12 -8 -16 0 -21 4 -16 15 3 9 8 12 12 8 3 -4 11 -11 16
-15z m206 -15 c8 -22 12 -24 19 -13 5 8 12 11 17 7 4 -5 1 -12 -7 -17 -17 -10
-40 5 -40 27 0 13 -3 13 -15 3 -9 -8 -15 -8 -15 -2 0 8 10 16 28 21 1 1 7 -11
13 -26z m-556 -2 c-8 -13 -35 -15 -35 -2 0 5 8 11 18 13 21 5 26 2 17 -11z
m654 -6 c5 3 7 -4 4 -15 -4 -15 -9 -17 -23 -10 -10 5 -20 16 -24 25 -4 13 -2
14 14 5 11 -6 24 -8 29 -5z m-552 -17 c-3 -8 -6 -5 -6 6 -1 11 2 17 5 13 3 -3
4 -12 1 -19z m168 -8 c-3 -5 -12 -10 -18 -10 -7 0 -6 4 3 10 19 12 23 12 15 0z
m-188 -14 c0 -8 -6 -12 -14 -9 -7 3 -10 9 -7 14 8 14 21 11 21 -5z m585 -18
c-7 -7 -12 -8 -12 -2 0 14 12 26 19 19 2 -3 -1 -11 -7 -17z m-502 2 c0 -5 -5
-10 -11 -10 -5 0 -7 5 -4 10 3 6 8 10 11 10 2 0 4 -4 4 -10z m475 0 c3 -5 -1
-10 -10 -10 -9 0 -13 5 -10 10 3 6 8 10 10 10 2 0 7 -4 10 -10z m-203 -22 c-7
-7 -12 -8 -12 -2 0 14 12 26 19 19 2 -3 -1 -11 -7 -17z m68 12 c0 -5 -5 -10
-11 -10 -5 0 -7 5 -4 10 3 6 8 10 11 10 2 0 4 -4 4 -10z"/>
<path d="M840 2045 c14 -17 0 -21 -17 -4 -6 6 -16 8 -22 5 -14 -9 -14 -33 0
-42 8 -4 9 1 4 17 l-8 24 22 -20 c18 -16 24 -17 31 -6 10 17 2 41 -12 41 -6 0
-5 -6 2 -15z"/>
<path d="M885 2020 c-3 -5 -2 -10 4 -10 5 0 13 5 16 10 3 6 2 10 -4 10 -5 0
-13 -4 -16 -10z"/>
<path d="M710 1990 c-8 -5 -12 -12 -9 -15 4 -3 12 1 19 10 14 17 11 19 -10 5z"/>
<path d="M1125 1970 c4 -6 11 -8 16 -5 14 9 11 15 -7 15 -8 0 -12 -5 -9 -10z"/>
<path d="M1100 1944 c0 -8 5 -12 10 -9 6 4 8 11 5 16 -9 14 -15 11 -15 -7z"/>
<path d="M1065 1910 c-3 -5 0 -10 9 -10 8 0 17 -6 19 -12 3 -7 6 -3 6 10 1 22
-22 31 -34 12z"/>
<path d="M1137 1883 c-10 -9 -9 -23 2 -23 5 0 11 7 15 15 5 15 -5 20 -17 8z"/>
<path d="M1201 1844 c0 -11 3 -14 6 -6 3 7 2 16 -1 19 -3 4 -6 -2 -5 -13z"/>
<path d="M1050 1835 c-10 -12 -10 -15 4 -15 9 0 16 7 16 15 0 8 -2 15 -4 15
-2 0 -9 -7 -16 -15z"/>
<path d="M1370 1769 c0 -5 5 -7 10 -4 6 3 10 8 10 11 0 2 -4 4 -10 4 -5 0 -10
-5 -10 -11z"/>
<path d="M1210 1709 c0 -5 5 -7 10 -4 6 3 10 8 10 11 0 2 -4 4 -10 4 -5 0 -10
-5 -10 -11z"/>
<path d="M1300 1641 c0 -10 19 -25 25 -20 1 2 -3 10 -11 17 -8 7 -14 8 -14 3z"/>
<path d="M1600 1707 c0 -8 6 -20 14 -26 12 -10 13 -8 9 9 -7 25 -23 37 -23 17z"/>
<path d="M2135 1690 c-3 -5 -1 -10 4 -10 6 0 11 5 11 10 0 6 -2 10 -4 10 -3 0
-8 -4 -11 -10z"/>
<path d="M1647 1649 c-3 -12 0 -19 8 -19 20 0 25 13 10 27 -10 9 -14 8 -18 -8z"/>
<path d="M1710 1635 c0 -8 5 -15 10 -15 6 0 10 7 10 15 0 8 -4 15 -10 15 -5 0
-10 -7 -10 -15z"/>
<path d="M2063 1630 c-3 -11 -12 -20 -19 -20 -8 0 -14 -5 -14 -11 0 -6 -6 -9
-14 -6 -10 4 -12 0 -9 -14 3 -11 -2 -28 -11 -38 -10 -11 -14 -21 -9 -24 12 -8
46 24 60 56 7 15 17 27 22 27 4 0 9 11 9 25 0 30 -8 33 -15 5z"/>
<path d="M2000 1620 c0 -5 5 -10 10 -10 6 0 10 5 10 10 0 6 -4 10 -10 10 -5 0
-10 -4 -10 -10z"/>
<path d="M2160 1609 c0 -18 2 -19 15 -5 8 8 15 17 15 20 0 3 -7 6 -15 6 -9 0
-15 -9 -15 -21z"/>
<path d="M2120 1599 c0 -5 5 -7 10 -4 6 3 10 8 10 11 0 2 -4 4 -10 4 -5 0 -10
-5 -10 -11z"/>
<path d="M2065 1570 c-3 -5 -2 -10 4 -10 5 0 13 5 16 10 3 6 2 10 -4 10 -5 0
-13 -4 -16 -10z"/>
<path d="M2118 1568 c9 -9 15 -9 24 0 9 9 7 12 -12 12 -19 0 -21 -3 -12 -12z"/>
<path d="M1900 1494 c0 -8 5 -12 10 -9 6 4 8 11 5 16 -9 14 -15 11 -15 -7z"/>
<path d="M2582 1290 c0 -14 2 -19 5 -12 2 6 2 18 0 25 -3 6 -5 1 -5 -13z"/>
<path d="M2635 1231 c-3 -5 -1 -12 5 -16 5 -3 10 1 10 9 0 18 -6 21 -15 7z"/>
<path d="M2690 1209 c-16 -30 -8 -31 13 -3 10 13 13 24 8 24 -6 0 -15 -9 -21
-21z"/>
<path d="M2614 1196 c-10 -27 2 -43 14 -19 8 14 9 24 2 28 -6 3 -13 -1 -16 -9z"/>
<path d="M1682 2765 c0 -16 2 -22 5 -12 2 9 2 23 0 30 -3 6 -5 -1 -5 -18z"/>
<path d="M1990 2775 c0 -8 2 -15 4 -15 2 0 6 7 10 15 3 8 1 15 -4 15 -6 0 -10
-7 -10 -15z"/>
<path d="M2180 2751 c0 -6 4 -13 10 -16 6 -3 7 1 4 9 -7 18 -14 21 -14 7z"/>
<path d="M1663 2715 c-3 -9 -3 -18 -1 -21 3 -3 8 4 11 16 6 23 -1 27 -10 5z"/>
<path d="M1999 2675 c-3 -33 -1 -41 13 -41 9 0 22 12 28 26 10 23 9 24 -5 6
-15 -20 -19 -16 -28 29 -2 11 -5 2 -8 -20z"/>
<path d="M457 2661 c-21 -35 -22 -112 -3 -149 8 -15 29 -40 47 -57 17 -16 28
-24 24 -16 -17 30 -33 134 -24 158 13 34 11 45 -9 71 l-17 22 -18 -29z"/>
<path d="M2045 2639 c-9 -17 -15 -34 -13 -39 2 -5 11 9 20 30 20 47 15 53 -7
9z"/>
<path d="M1621 2605 c-1 -11 -4 -31 -6 -45 l-6 -25 11 25 c6 13 9 33 7 45 -4
19 -4 19 -6 0z"/>
<path d="M3886 2591 c-12 -5 -15 -10 -9 -14 6 -4 16 0 23 8 14 17 13 17 -14 6z"/>
<path d="M3795 2550 c3 -5 8 -10 11 -10 2 0 4 5 4 10 0 6 -5 10 -11 10 -5 0
-7 -4 -4 -10z"/>
<path d="M3845 2549 c-4 -6 -5 -12 -2 -15 2 -3 7 2 10 11 7 17 1 20 -8 4z"/>
<path d="M4030 2525 c0 -8 4 -15 9 -15 5 0 11 7 15 15 3 9 0 15 -9 15 -8 0
-15 -7 -15 -15z"/>
<path d="M4700 2530 c-8 -5 -10 -10 -5 -10 6 0 17 5 25 10 8 5 11 10 5 10 -5
0 -17 -5 -25 -10z"/>
<path d="M1572 2448 c-10 -30 -10 -31 3 -14 13 17 21 46 12 46 -1 0 -8 -15
-15 -32z"/>
<path d="M2130 2433 c0 -13 5 -23 10 -23 13 0 13 11 0 30 -8 12 -10 11 -10 -7z"/>
<path d="M2095 2410 c3 -6 1 -10 -6 -10 -8 0 -8 -4 1 -15 7 -8 17 -15 22 -15
6 0 6 6 -1 14 -9 11 -9 15 1 18 8 3 6 7 -6 11 -10 4 -15 3 -11 -3z"/>
<path d="M2334 2405 c11 -8 25 -15 30 -15 6 0 2 7 -8 15 -11 8 -25 15 -30 15
-6 0 -2 -7 8 -15z"/>
<path d="M1535 2389 c-4 -6 -4 -13 -1 -16 3 -4 6 -1 6 6 0 7 5 9 12 5 7 -4 8
-3 4 4 -9 15 -13 15 -21 1z"/>
<path d="M2373 2385 c-10 -10 -9 -14 3 -19 10 -4 13 -2 8 6 -5 8 -2 9 9 5 10
-3 17 -2 17 2 0 15 -25 19 -37 6z"/>
<path d="M970 2350 c34 -11 60 -11 35 0 -11 5 -29 8 -40 8 -16 0 -15 -2 5 -8z"/>
<path d="M2440 2346 c0 -2 7 -9 15 -16 13 -11 14 -10 9 4 -5 14 -24 23 -24 12z"/>
<path d="M2570 2330 c0 -5 5 -10 11 -10 5 0 7 5 4 10 -3 6 -8 10 -11 10 -2 0
-4 -4 -4 -10z"/>
<path d="M2622 2328 c2 -5 8 -9 13 -9 5 0 11 4 13 9 1 5 -4 9 -13 9 -9 0 -14
-4 -13 -9z"/>
<path d="M1440 2300 c0 -5 5 -10 10 -10 6 0 10 5 10 10 0 6 -4 10 -10 10 -5 0
-10 -4 -10 -10z"/>
<path d="M2746 2281 c-3 -5 1 -11 9 -15 8 -3 15 -1 15 4 0 13 -18 22 -24 11z"/>
<path d="M4200 2279 c0 -5 5 -7 10 -4 6 3 10 8 10 11 0 2 -4 4 -10 4 -5 0 -10
-5 -10 -11z"/>
<path d="M2190 2026 c0 -2 8 -10 18 -17 15 -13 16 -12 3 4 -13 16 -21 21 -21
13z"/>
<path d="M2460 1569 c0 -5 5 -7 10 -4 6 3 10 8 10 11 0 2 -4 4 -10 4 -5 0 -10
-5 -10 -11z"/>
<path d="M4415 1530 c-3 -5 -1 -10 4 -10 6 0 11 5 11 10 0 6 -2 10 -4 10 -3 0
-8 -4 -11 -10z"/>
<path d="M4156 1505 c-3 -9 -6 -22 -5 -28 0 -7 5 -1 10 12 5 13 8 26 5 28 -2
2 -6 -3 -10 -12z"/>
<path d="M4070 1480 c0 -5 5 -10 11 -10 5 0 7 5 4 10 -3 6 -8 10 -11 10 -2 0
-4 -4 -4 -10z"/>
<path d="M4120 1475 c0 -5 5 -17 10 -25 5 -8 10 -10 10 -5 0 6 -5 17 -10 25
-5 8 -10 11 -10 5z"/>
<path d="M4035 1449 c-9 -14 -2 -20 14 -10 8 6 9 11 3 15 -6 3 -14 1 -17 -5z"/>
<path d="M4220 1429 c0 -5 5 -7 10 -4 6 3 10 8 10 11 0 2 -4 4 -10 4 -5 0 -10
-5 -10 -11z"/>
<path d="M1975 1330 c-3 -6 1 -7 9 -4 18 7 21 14 7 14 -6 0 -13 -4 -16 -10z"/>
<path d="M1725 1321 c-2 -5 4 -11 15 -14 11 -3 20 -2 20 3 0 12 -28 21 -35 11z"/>
<path d="M2025 1320 c-3 -5 1 -10 10 -10 9 0 13 -4 10 -10 -3 -5 -1 -10 4 -10
13 0 13 3 5 24 -7 18 -20 21 -29 6z"/>
<path d="M725 1310 c-3 -5 -1 -10 4 -10 6 0 11 5 11 10 0 6 -2 10 -4 10 -3 0
-8 -4 -11 -10z"/>
<path d="M1331 1284 c0 -11 3 -14 6 -6 3 7 2 16 -1 19 -3 4 -6 -2 -5 -13z"/>
<path d="M1360 1280 c-6 -11 -8 -20 -6 -20 3 0 10 9 16 20 6 11 8 20 6 20 -3
0 -10 -9 -16 -20z"/>
<path d="M701 1254 c0 -11 3 -14 6 -6 3 7 2 16 -1 19 -3 4 -6 -2 -5 -13z"/>
<path d="M1180 1241 c-12 -24 -13 -31 -1 -31 5 0 11 11 13 25 6 30 2 32 -12 6z"/>
<path d="M1362 1244 c-14 -15 -7 -17 22 -5 15 6 16 9 5 13 -8 3 -20 -1 -27 -8z"/>
<path d="M995 1240 c-3 -5 -1 -10 4 -10 6 0 11 5 11 10 0 6 -2 10 -4 10 -3 0
-8 -4 -11 -10z"/>
<path d="M1215 1240 c-3 -5 -2 -10 4 -10 5 0 13 5 16 10 3 6 2 10 -4 10 -5 0
-13 -4 -16 -10z"/>
<path d="M1125 1230 c-3 -5 -1 -10 4 -10 6 0 11 5 11 10 0 6 -2 10 -4 10 -3 0
-8 -4 -11 -10z"/>
<path d="M1377 1213 c-4 -3 -7 -11 -7 -17 0 -6 5 -5 12 2 6 6 9 14 7 17 -3 3
-9 2 -12 -2z"/>
<path d="M825 1200 c3 -5 11 -10 16 -10 6 0 7 5 4 10 -3 6 -11 10 -16 10 -6 0
-7 -4 -4 -10z"/>
<path d="M2206 1203 c1 -3 -1 -16 -6 -29 -6 -14 -6 -26 0 -29 13 -8 25 44 13
54 -6 5 -9 6 -7 4z"/>
<path d="M955 1190 c-3 -5 -1 -10 4 -10 6 0 11 5 11 10 0 6 -2 10 -4 10 -3 0
-8 -4 -11 -10z"/>
<path d="M1255 1177 c10 -15 20 -25 23 -22 3 3 -5 16 -17 28 l-23 22 17 -28z"/>
<path d="M1396 1191 c-4 -7 -5 -15 -2 -18 9 -9 19 4 14 18 -4 11 -6 11 -12 0z"/>
<path d="M1615 1191 c-3 -5 -1 -12 5 -16 5 -3 10 -2 10 4 0 5 8 12 18 14 13 4
12 5 -5 6 -12 0 -24 -3 -28 -8z"/>
<path d="M1856 1183 c-6 -14 -5 -15 5 -6 7 7 10 15 7 18 -3 3 -9 -2 -12 -12z"/>
<path d="M1950 1190 c0 -5 7 -7 15 -4 8 4 15 8 15 10 0 2 -7 4 -15 4 -8 0 -15
-4 -15 -10z"/>
<path d="M1993 1179 c-4 -12 -11 -18 -20 -15 -8 3 -11 1 -8 -4 3 -6 0 -10 -7
-10 -7 -1 -3 -9 11 -20 13 -11 19 -20 14 -20 -5 0 -19 -9 -31 -21 -20 -18 -24
-19 -38 -5 -21 22 -27 20 -12 -3 15 -24 48 -35 48 -16 0 18 39 45 55 39 7 -3
16 0 20 6 4 7 1 10 -6 9 -19 -3 -49 11 -49 22 0 5 5 9 11 9 12 0 38 29 39 43
0 16 -22 5 -27 -14z"/>
<path d="M2050 1190 c-9 -6 -10 -10 -3 -10 6 0 15 5 18 10 8 12 4 12 -15 0z"/>
<path d="M870 1179 c0 -5 5 -7 10 -4 6 3 10 8 10 11 0 2 -4 4 -10 4 -5 0 -10
-5 -10 -11z"/>
<path d="M1296 1158 c-18 -36 -19 -41 -7 -34 9 6 33 66 26 66 -2 0 -11 -14
-19 -32z"/>
<path d="M1706 1162 l-19 -27 24 22 c12 12 21 24 18 27 -2 2 -13 -8 -23 -22z"/>
<path d="M1800 1179 c0 -5 5 -7 10 -4 6 3 10 8 10 11 0 2 -4 4 -10 4 -5 0 -10
-5 -10 -11z"/>
<path d="M1918 1168 c0 -13 0 -32 0 -43 2 -16 0 -17 -7 -5 -6 8 -13 11 -18 7
-7 -7 13 -26 28 -27 11 0 21 34 11 38 -5 1 -7 14 -4 27 2 14 2 25 -2 25 -3 0
-7 -10 -8 -22z"/>
<path d="M2080 1180 c0 -5 5 -10 10 -10 6 0 10 5 10 10 0 6 -4 10 -10 10 -5 0
-10 -4 -10 -10z"/>
<path d="M1110 1169 c0 -5 5 -7 10 -4 6 3 10 8 10 11 0 2 -4 4 -10 4 -5 0 -10
-5 -10 -11z"/>
<path d="M2285 1168 c5 -13 2 -18 -10 -18 -9 0 -13 5 -10 10 3 6 2 10 -3 10
-6 0 -13 -7 -16 -16 -3 -8 -2 -13 3 -9 5 3 11 0 13 -5 2 -7 11 -5 23 4 17 12
18 17 7 28 -11 11 -12 10 -7 -4z"/>
<path d="M1050 1160 c-8 -5 -12 -12 -9 -15 4 -3 12 1 19 10 14 17 11 19 -10 5z"/>
<path d="M1357 1150 c-6 -24 8 -36 17 -14 8 22 7 34 -3 34 -5 0 -11 -9 -14
-20z"/>
<path d="M1550 1159 c0 -5 5 -7 10 -4 6 3 10 8 10 11 0 2 -4 4 -10 4 -5 0 -10
-5 -10 -11z"/>
<path d="M1751 1139 c-9 -27 -9 -30 4 -19 8 7 12 17 9 22 -4 5 8 2 25 -6 37
-20 42 -5 6 18 -32 21 -31 21 -44 -15z"/>
<path d="M1870 1159 c0 -5 5 -9 10 -9 6 0 12 0 15 0 14 0 8 13 -7 16 -10 1
-18 -2 -18 -7z"/>
<path d="M2137 1156 c-3 -7 0 -19 6 -25 9 -9 8 -14 -3 -22 -13 -9 -12 -10 3
-5 20 6 22 -5 5 -22 -9 -9 -9 -15 1 -24 11 -10 12 -10 7 -1 -5 9 -2 11 9 7 14
-6 14 -8 -1 -25 -11 -12 -13 -19 -5 -19 6 0 14 6 17 14 3 8 12 12 20 9 8 -3
14 0 14 6 0 6 -6 11 -14 11 -21 0 -25 23 -8 43 19 21 9 35 -13 17 -13 -11 -15
-8 -15 19 0 32 -14 42 -23 17z"/>
<path d="M945 1150 c3 -5 11 -10 16 -10 6 0 7 5 4 10 -3 6 -11 10 -16 10 -6 0
-7 -4 -4 -10z"/>
<path d="M1330 1150 c-8 -5 -12 -12 -9 -15 4 -3 12 1 19 10 14 17 11 19 -10 5z"/>
<path d="M1589 1149 c-11 -7 -11 -9 4 -9 19 0 24 -26 5 -32 -7 -3 -8 -7 -2
-11 5 -3 15 2 21 12 14 23 -6 54 -28 40z"/>
<path d="M2022 1148 c-9 -9 -7 -14 6 -25 16 -12 16 -14 0 -27 -10 -7 -18 -18
-18 -25 0 -6 -7 -11 -15 -11 -8 0 -15 -5 -15 -11 0 -5 5 -7 10 -4 6 3 10 -3
10 -14 0 -12 -5 -20 -11 -18 -6 1 -14 -4 -16 -11 -3 -8 1 -10 14 -5 16 6 16 5
4 -10 -7 -9 -9 -17 -3 -17 5 0 14 12 19 28 6 15 16 43 23 62 12 33 13 48 9 85
-3 18 -2 18 -17 3z"/>
<path d="M2337 1147 c-4 -10 -12 -14 -22 -11 -8 3 -15 1 -15 -5 0 -6 6 -11 13
-11 21 0 40 17 35 31 -3 9 -6 8 -11 -4z"/>
<path d="M1210 1140 c-9 -6 -10 -10 -3 -10 6 0 15 5 18 10 8 12 4 12 -15 0z"/>
<path d="M1520 1140 c0 -5 5 -10 10 -10 6 0 10 5 10 10 0 6 -4 10 -10 10 -5 0
-10 -4 -10 -10z"/>
<path d="M1445 1130 c-3 -5 -1 -10 4 -10 6 0 11 5 11 10 0 6 -2 10 -4 10 -3 0
-8 -4 -11 -10z"/>
<path d="M2083 1116 c-13 -13 -23 -30 -23 -37 0 -7 7 -3 16 9 13 19 18 21 32
10 14 -10 15 -10 5 1 -6 7 -9 20 -6 27 7 20 1 17 -24 -10z"/>
<path d="M2215 1130 c-3 -5 -1 -10 4 -10 6 0 11 5 11 10 0 6 -2 10 -4 10 -3 0
-8 -4 -11 -10z"/>
<path d="M1020 1121 c0 -5 5 -13 10 -16 6 -3 10 -2 10 4 0 5 -4 13 -10 16 -5
3 -10 2 -10 -4z"/>
<path d="M1071 1116 c-8 -10 -9 -16 -1 -21 5 -3 10 -1 10 5 0 6 4 8 10 5 6 -3
7 1 4 9 -7 19 -9 20 -23 2z"/>
<path d="M990 1110 c0 -5 5 -10 10 -10 6 0 10 5 10 10 0 6 -4 10 -10 10 -5 0
-10 -4 -10 -10z"/>
<path d="M1646 1104 c-9 -24 -2 -26 12 -4 7 11 8 20 3 20 -5 0 -12 -7 -15 -16z"/>
<path d="M1824 1105 c-10 -26 1 -35 13 -10 6 14 7 25 2 25 -5 0 -12 -7 -15
-15z"/>
<path d="M2237 1113 c-11 -10 -8 -33 6 -46 16 -16 51 -22 42 -7 -4 6 1 20 11
31 23 25 4 25 -24 -1 -22 -21 -26 -19 -23 13 2 18 -1 21 -12 10z"/>
<path d="M2368 1113 c6 -2 18 -2 25 0 6 3 1 5 -13 5 -14 0 -19 -2 -12 -5z"/>
<path d="M1350 1105 c0 -8 31 -34 40 -35 3 0 7 10 7 22 2 17 0 19 -7 9 -7 -12
-11 -12 -24 -2 -9 8 -16 10 -16 6z"/>
<path d="M1466 1091 c-11 -12 -14 -21 -7 -26 6 -3 11 0 11 9 0 8 6 16 13 19 6
2 9 7 6 11 -3 3 -14 -2 -23 -13z"/>
<path d="M1850 1093 c-11 -13 -11 -18 -2 -21 9 -3 8 -8 -5 -18 -17 -13 -17
-13 0 -14 9 0 17 3 18 8 0 4 2 19 4 35 4 31 4 31 -15 10z"/>
<path d="M2320 1088 c-28 -25 -41 -90 -15 -68 12 10 15 9 15 -3 0 -10 6 -14
15 -11 8 4 15 2 15 -4 0 -5 -9 -12 -20 -15 -11 -3 -20 -1 -20 5 0 5 -4 7 -9 4
-11 -7 -23 22 -15 35 8 13 -10 11 -24 -3 -17 -17 -15 -47 3 -54 8 -4 15 -13
15 -22 0 -12 -5 -11 -21 7 -16 17 -20 30 -15 54 l6 32 -20 -33 c-11 -18 -18
-38 -14 -43 3 -5 1 -16 -6 -24 -8 -10 -6 -16 9 -27 12 -8 18 -18 14 -21 -3 -4
-1 -7 5 -7 6 0 13 9 17 20 3 11 9 19 13 19 19 -3 31 4 65 36 35 33 41 65 13
65 -6 0 -3 7 7 14 23 18 22 29 -2 16 -13 -7 -22 -7 -26 0 -6 10 -5 11 15 14
11 1 14 10 8 27 -2 6 -15 0 -28 -13z"/>
<path d="M950 1090 c0 -5 5 -10 10 -10 6 0 10 5 10 10 0 6 -4 10 -10 10 -5 0
-10 -4 -10 -10z"/>
<path d="M1530 1089 c0 -5 5 -7 10 -4 6 3 10 8 10 11 0 2 -4 4 -10 4 -5 0 -10
-5 -10 -11z"/>
<path d="M1670 1081 c0 -11 5 -23 10 -26 6 -3 10 -15 10 -27 0 -17 2 -18 15
-8 12 10 13 15 4 20 -6 4 -9 13 -5 19 5 7 1 9 -9 5 -11 -4 -14 -2 -9 9 3 8 1
18 -5 22 -7 3 -11 -2 -11 -14z"/>
<path d="M1773 1093 c-7 -2 -13 -10 -13 -16 0 -8 3 -8 11 0 6 6 18 9 27 6 10
-4 13 -2 8 5 -8 13 -13 14 -33 5z"/>
<path d="M2395 1090 c3 -5 2 -10 -3 -10 -14 0 -22 -52 -11 -70 6 -12 8 -10 9
8 0 16 4 21 13 16 9 -6 9 -5 0 7 -8 9 -9 20 -3 29 13 20 12 30 -1 30 -5 0 -7
-4 -4 -10z"/>
<path d="M984 1072 c0 -11 7 -18 16 -17 25 3 50 16 50 26 0 6 -8 5 -19 -1 -13
-7 -22 -7 -26 0 -10 16 -21 12 -21 -8z"/>
<path d="M1965 1079 c-4 -6 -5 -12 -2 -15 7 -7 37 7 37 17 0 13 -27 11 -35 -2z"/>
<path d="M1060 1070 c0 -5 5 -10 11 -10 5 0 7 5 4 10 -3 6 -8 10 -11 10 -2 0
-4 -4 -4 -10z"/>
<path d="M1241 1064 c14 -17 25 -18 32 -1 3 7 -5 13 -20 13 -19 2 -22 -1 -12
-12z"/>
<path d="M1606 1064 c-9 -24 -2 -26 12 -4 7 11 8 20 3 20 -5 0 -12 -7 -15 -16z"/>
<path d="M1335 1055 c-3 -8 -7 -22 -10 -31 -3 -9 0 -14 7 -12 6 2 12 16 12 31
2 30 -2 35 -9 12z"/>
<path d="M1132 1043 c2 -12 -4 -19 -19 -21 -16 -2 -23 2 -23 12 0 9 -4 16 -10
16 -5 0 -10 -9 -10 -20 0 -14 7 -20 21 -20 11 0 18 -4 15 -9 -3 -5 5 -11 19
-13 20 -4 23 -3 14 8 -8 10 -8 14 0 14 6 0 11 11 11 25 0 14 -5 25 -10 25 -6
0 -10 -8 -8 -17z"/>
<path d="M1177 1041 c-14 -17 -12 -51 4 -51 10 0 12 12 10 45 -1 13 1 16 6 8
5 -7 14 -9 22 -4 9 6 8 10 -8 14 -12 3 -26 -2 -34 -12z"/>
<path d="M1360 1044 c0 -8 5 -12 10 -9 6 4 8 11 5 16 -9 14 -15 11 -15 -7z"/>
<path d="M1636 1045 c4 -8 11 -15 16 -15 6 0 5 6 -2 15 -7 8 -14 15 -16 15 -2
0 -1 -7 2 -15z"/>
<path d="M2216 1043 c-4 -13 -11 -23 -15 -23 -4 0 -16 -7 -27 -15 -18 -14 -18
-14 9 -15 21 0 30 6 38 27 5 14 8 31 6 37 -2 6 -7 1 -11 -11z"/>
<path d="M1270 1040 c0 -5 9 -14 21 -20 19 -11 20 -10 9 9 -11 22 -30 29 -30
11z"/>
<path d="M2040 1040 c0 -5 7 -10 16 -10 8 0 12 5 9 10 -3 6 -10 10 -16 10 -5
0 -9 -4 -9 -10z"/>
<path d="M1250 1025 c0 -11 -5 -15 -14 -12 -17 7 -30 -19 -15 -29 6 -3 15 -18
21 -32 10 -23 12 -24 16 -8 2 11 -3 23 -12 28 -21 12 -21 28 1 28 9 0 13 -3
10 -7 -4 -3 0 -15 10 -25 18 -20 38 -25 27 -5 -5 8 -2 8 9 -2 9 -7 17 -20 17
-27 0 -8 4 -14 9 -14 5 0 9 17 8 39 -2 35 -4 38 -23 30 -25 -9 -61 12 -50 29
3 6 2 13 -4 17 -5 3 -10 -1 -10 -10z"/>
<path d="M1520 1030 c0 -5 5 -10 10 -10 6 0 10 5 10 10 0 6 -4 10 -10 10 -5 0
-10 -4 -10 -10z"/>
<path d="M1565 1030 c-3 -5 -1 -10 4 -10 6 0 11 5 11 10 0 6 -2 10 -4 10 -3 0
-8 -4 -11 -10z"/>
<path d="M1766 1018 c3 -4 9 -8 15 -8 5 0 9 4 9 8 0 5 -7 9 -15 9 -8 0 -12 -4
-9 -9z"/>
<path d="M2120 1010 c0 -11 4 -20 8 -20 4 0 8 9 8 20 0 11 -4 20 -8 20 -4 0
-8 -9 -8 -20z"/>
<path d="M1367 1006 c-4 -10 -1 -13 9 -9 15 6 19 23 5 23 -5 0 -11 -7 -14 -14z"/>
<path d="M1652 1011 c-11 -7 -11 -9 1 -14 16 -6 27 0 27 15 0 10 -11 10 -28
-1z"/>
<path d="M2029 1016 c-3 -12 -7 -26 -9 -33 -1 -5 -2 -11 -1 -15 0 -5 -4 -8
-10 -8 -6 0 -9 -6 -6 -14 3 -7 0 -19 -6 -25 -6 -6 -8 -14 -4 -17 10 -10 38 16
31 28 -4 6 -1 14 6 18 15 9 22 58 9 66 -5 3 -10 3 -10 0z"/>
<path d="M1472 985 c-6 -14 -17 -24 -24 -23 -8 2 -12 -5 -10 -15 2 -10 -2 -25
-9 -33 -6 -8 -8 -14 -5 -14 11 0 61 63 59 72 -5 13 15 9 19 -4 3 -8 9 -4 17 9
10 19 9 22 -5 16 -9 -3 -19 -1 -23 6 -5 8 -11 3 -19 -14z"/>
<path d="M1566 988 c5 -8 2 -9 -9 -5 -11 4 -17 1 -17 -8 0 -18 12 -19 28 -3
15 15 15 28 1 28 -5 0 -7 -5 -3 -12z"/>
<path d="M1192 969 c2 -7 10 -15 17 -17 8 -3 12 1 9 9 -2 7 -10 15 -17 17 -8
3 -12 -1 -9 -9z"/>
<path d="M1841 971 c-8 -6 -9 -11 -3 -15 6 -3 14 -1 17 5 9 14 2 20 -14 10z"/>
<path d="M2326 939 l-19 -32 32 19 c17 10 27 20 21 22 -5 2 -8 8 -4 13 3 5 1
9 -3 9 -5 0 -17 -14 -27 -31z"/>
<path d="M2290 880 c0 -5 7 -10 15 -10 8 0 15 5 15 10 0 6 -7 10 -15 10 -8 0
-15 -4 -15 -10z"/>
</g>
</svg>
